<svg width="2774" height="2774" viewBox="0 0 2774 2774" fill="none" xmlns="http://www.w3.org/2000/svg">
<path d="M1589.18 1069.16C1800.46 1203.71 1969.03 1361.11 2070.8 1506.81C2121.69 1579.66 2155.86 1649.56 2170.32 1712.2C2184.79 1774.83 2179.54 1830.17 2151.66 1873.94C2123.78 1917.72 2075.86 1945.87 2012.98 1959.25C1950.1 1972.63 1872.31 1971.22 1784.78 1955.92C1609.71 1925.3 1395.79 1839.1 1184.52 1704.55C973.245 1569.99 804.668 1412.59 702.898 1266.89C652.013 1194.04 617.844 1124.14 603.379 1061.51C588.915 998.869 594.16 943.537 622.04 899.761C649.92 855.986 697.844 827.834 760.72 814.455C823.599 801.075 901.392 802.479 988.925 817.786C1163.99 848.399 1377.91 934.602 1589.18 1069.16Z" stroke="#2E2E2E"/>
<path d="M1594.7 1072.74C1803.59 1210.96 1969.39 1371.28 2068.6 1518.73C2118.21 1592.45 2151.15 1662.94 2164.52 1725.82C2177.89 1788.7 2171.68 1843.93 2143.04 1887.22C2114.4 1930.5 2066 1957.81 2002.9 1970.09C1939.79 1982.37 1862.04 1979.61 1774.78 1962.78C1600.28 1929.11 1387.89 1839.19 1179 1700.97C970.112 1562.75 804.308 1402.43 705.096 1254.98C655.49 1181.25 622.546 1110.76 609.177 1047.88C595.808 985.003 602.018 929.77 630.658 886.488C659.297 843.205 707.705 815.895 770.805 803.615C833.908 791.335 911.664 794.096 998.917 810.928C1173.42 844.591 1385.81 934.515 1594.7 1072.74Z" stroke="#2E2E2E"/>
<path d="M1600.15 1076.41C1806.59 1218.26 1969.58 1381.45 2066.2 1530.61C2114.51 1605.19 2146.22 1676.24 2158.49 1739.34C2170.76 1802.44 2163.59 1857.56 2134.2 1900.34C2104.81 1943.11 2055.93 1969.57 1992.62 1980.75C1929.32 1991.93 1851.62 1987.81 1764.67 1969.46C1590.78 1932.75 1380 1839.14 1173.55 1697.29C967.106 1555.45 804.125 1392.26 707.502 1243.1C659.189 1168.52 627.481 1097.46 615.211 1034.36C602.942 971.258 610.115 916.142 639.506 873.366C668.896 830.59 717.773 804.128 781.078 792.952C844.386 781.775 922.082 785.893 1009.03 804.245C1182.92 840.949 1393.7 934.565 1600.15 1076.41Z" stroke="#2E2E2E"/>
<path d="M1605.53 1080.18C1809.47 1225.61 1969.58 1391.62 2063.59 1542.44C2110.59 1617.85 2141.05 1689.45 2152.22 1752.76C2163.39 1816.06 2155.25 1871.05 2125.12 1913.3C2094.99 1955.56 2045.66 1981.16 1982.17 1991.23C1918.67 2001.3 1841.06 1995.83 1754.45 1975.96C1581.23 1936.23 1372.11 1838.95 1168.17 1693.52C964.228 1548.1 804.119 1382.09 710.114 1231.26C663.111 1155.85 632.648 1084.26 621.481 1020.95C610.315 957.641 618.448 902.658 648.581 860.402C678.714 818.145 728.045 792.541 791.535 782.47C855.028 772.4 932.641 777.874 1019.25 797.74C1192.48 837.473 1401.59 934.754 1605.53 1080.18Z" stroke="#2E2E2E"/>
<path d="M1610.85 1084.04C1812.22 1233.01 1969.41 1401.79 2060.77 1554.23C2106.45 1630.45 2135.66 1702.56 2145.72 1766.06C2155.78 1829.55 2146.68 1884.38 2115.82 1926.11C2084.95 1967.83 2035.18 1992.57 1971.53 2001.53C1907.87 2010.49 1830.36 2003.66 1744.11 1982.29C1571.61 1939.54 1364.22 1838.62 1162.85 1689.66C961.477 1540.7 804.291 1371.92 712.932 1219.48C667.252 1143.25 638.043 1071.14 627.983 1007.65C617.923 944.153 627.015 889.322 657.881 847.597C688.746 805.873 738.517 781.133 802.174 772.173C865.832 763.212 943.338 770.039 1029.59 791.415C1202.09 834.165 1409.48 935.08 1610.85 1084.04Z" stroke="#2E2E2E"/>
<path d="M1616.1 1088C1814.84 1240.45 1969.06 1411.95 2057.74 1565.96C2102.09 1642.97 2130.03 1715.58 2138.98 1779.24C2147.93 1842.9 2137.89 1897.57 2106.3 1938.75C2074.71 1979.93 2024.51 2003.79 1960.71 2011.64C1896.9 2019.49 1819.53 2011.31 1733.66 1988.43C1561.93 1942.68 1356.34 1838.16 1157.6 1685.7C958.858 1533.25 804.64 1361.75 715.956 1207.74C671.613 1130.73 643.667 1058.12 634.717 994.459C625.767 930.801 635.814 876.136 667.403 834.957C698.992 793.778 749.187 769.911 812.991 762.062C876.796 754.214 954.17 762.393 1040.04 785.27C1211.77 831.024 1417.36 935.544 1616.1 1088Z" stroke="#2E2E2E"/>
<path d="M1621.28 1092.04C1817.33 1247.95 1968.53 1422.11 2054.52 1577.64C2097.51 1655.41 2124.18 1728.5 2132.02 1792.31C2139.86 1856.11 2128.86 1910.6 2096.56 1951.22C2064.25 1991.84 2013.65 2014.83 1949.72 2021.56C1885.79 2028.29 1808.57 2018.77 1723.11 1994.39C1552.21 1945.65 1348.47 1837.56 1152.42 1681.66C956.368 1525.76 805.167 1351.59 719.185 1196.06C676.193 1118.29 649.518 1045.2 641.68 981.392C633.842 917.587 644.842 863.106 677.145 822.485C709.448 781.863 760.052 758.875 823.982 752.142C887.915 745.408 965.135 754.936 1050.59 779.308C1221.49 828.053 1425.23 936.144 1621.28 1092.04Z" stroke="#2E2E2E"/>
<path d="M1626.39 1096.18C1819.69 1255.48 1967.83 1432.25 2051.09 1589.27C2092.71 1667.77 2118.11 1741.32 2124.83 1805.25C2131.55 1869.18 2119.61 1923.47 2086.6 1963.52C2053.59 2003.57 2002.59 2025.67 1938.56 2031.29C1874.52 2036.9 1797.47 2026.03 1712.46 2000.17C1542.43 1948.45 1340.61 1836.82 1147.31 1677.52C954.009 1518.22 805.871 1341.45 722.616 1184.43C680.988 1105.93 655.593 1032.38 648.87 968.448C642.147 904.516 654.096 850.236 687.103 810.184C720.11 770.132 771.107 748.031 835.145 742.414C899.186 736.797 976.228 747.672 1061.24 773.532C1231.27 825.251 1433.09 936.882 1626.39 1096.18Z" stroke="#2E2E2E"/>
<path d="M1631.43 1100.41C1821.92 1263.05 1966.95 1442.39 2047.45 1600.83C2087.7 1680.05 2111.81 1754.03 2117.42 1818.07C2123.02 1882.11 2110.13 1936.17 2076.43 1975.64C2042.73 2015.11 1991.35 2036.32 1927.23 2040.82C1863.1 2045.32 1786.26 2033.1 1701.71 2005.76C1532.61 1951.08 1332.76 1835.94 1142.27 1673.3C951.783 1510.65 806.752 1331.31 726.25 1172.87C685.998 1093.65 661.891 1019.67 656.284 955.632C650.678 891.593 663.573 837.529 697.274 798.06C730.975 758.59 782.35 737.382 846.476 732.884C910.605 728.386 987.446 740.603 1072 767.943C1241.1 822.622 1440.94 937.758 1631.43 1100.41Z" stroke="#2E2E2E"/>
<path d="M1636.39 1104.72C1824.01 1270.67 1965.89 1452.5 2043.62 1612.33C2082.48 1692.24 2105.29 1766.62 2109.78 1830.75C2114.27 1894.88 2100.43 1948.71 2066.05 1987.59C2031.66 2026.46 1979.92 2046.77 1915.73 2050.15C1851.53 2053.53 1774.92 2039.97 1690.86 2011.16C1522.74 1953.54 1324.93 1834.93 1137.31 1668.98C949.688 1503.04 807.81 1321.2 730.085 1161.38C691.222 1081.46 668.409 1007.08 663.921 942.948C659.434 878.821 673.27 824.99 707.655 786.115C742.039 747.24 793.777 726.932 857.972 723.553C922.17 720.175 998.785 733.731 1082.85 762.542C1250.97 820.164 1448.77 938.771 1636.39 1104.72Z" stroke="#2E2E2E"/>
<path d="M1641.28 1109.12C1825.97 1278.31 1964.66 1462.6 2039.58 1623.75C2077.04 1704.33 2098.55 1779.11 2101.92 1843.3C2105.29 1907.5 2090.52 1961.08 2055.46 1999.35C2020.4 2037.62 1968.32 2057.02 1904.07 2059.28C1839.83 2061.54 1763.46 2046.64 1679.91 2016.37C1512.82 1955.82 1317.12 1833.78 1132.42 1664.59C947.727 1495.39 809.043 1311.1 734.12 1149.95C696.657 1069.37 675.146 994.597 671.778 930.399C668.41 866.203 683.184 812.622 718.242 774.353C753.3 736.084 805.384 716.682 869.628 714.424C933.875 712.167 1010.24 727.058 1093.79 757.332C1260.88 817.879 1456.58 939.92 1641.28 1109.12Z" stroke="#2E2E2E"/>
<path d="M1646.09 1113.6C1827.8 1285.99 1963.25 1472.67 2035.35 1635.11C2071.4 1716.33 2091.6 1791.47 2093.85 1855.71C2096.1 1919.96 2080.39 1973.27 2044.67 2010.92C2008.95 2048.58 1956.53 2067.07 1892.26 2068.2C1827.98 2069.34 1751.89 2053.12 1668.88 2021.39C1502.88 1957.93 1309.33 1832.5 1127.62 1660.1C945.9 1487.71 810.454 1301.03 738.354 1138.59C702.304 1057.37 682.101 982.235 679.854 917.988C677.607 853.743 693.313 800.428 729.034 762.777C764.754 725.125 817.169 706.635 881.443 705.499C945.719 704.363 1021.81 720.585 1104.82 752.313C1270.83 815.767 1464.37 941.204 1646.09 1113.6Z" stroke="#2E2E2E"/>
<path d="M1650.82 1118.16C1829.5 1293.7 1961.66 1482.72 2030.92 1646.39C2065.54 1728.23 2084.43 1803.7 2085.56 1867.98C2086.68 1932.25 2070.05 1985.29 2033.68 2022.31C1997.3 2059.33 1944.57 2076.9 1880.29 2076.92C1816 2076.93 1740.2 2059.39 1657.77 2026.21C1492.89 1959.87 1301.57 1831.08 1122.89 1655.54C944.207 1480 812.04 1290.98 742.786 1127.31C708.158 1045.48 689.27 969.997 688.144 905.721C687.019 841.446 703.654 788.414 740.026 751.391C776.398 714.369 829.127 696.796 893.411 696.782C957.698 696.768 1033.5 714.316 1115.94 747.487C1280.81 813.829 1472.14 942.625 1650.82 1118.16Z" stroke="#2E2E2E"/>
<path d="M1655.47 1122.81C1831.05 1301.44 1959.9 1492.73 2026.29 1657.59C2059.48 1740.02 2077.05 1815.81 2077.06 1880.1C2077.06 1944.38 2059.5 1997.12 2022.49 2033.5C1985.48 2069.88 1932.45 2086.53 1868.17 2085.42C1803.9 2084.32 1728.41 2065.45 1646.57 2030.84C1482.88 1961.64 1293.83 1829.52 1118.24 1650.89C942.65 1472.26 813.801 1280.97 747.414 1116.11C714.22 1033.68 696.652 957.886 696.648 893.599C696.645 829.315 714.203 776.581 751.215 740.199C788.228 703.817 841.256 687.167 905.53 688.275C969.807 689.383 1045.29 708.251 1127.14 742.856C1290.83 812.065 1479.88 944.181 1655.47 1122.81Z" stroke="#2E2E2E"/>
<path d="M1660.03 1127.54C1832.48 1309.21 1957.97 1502.72 2021.47 1668.71C2053.22 1751.7 2069.46 1827.79 2068.34 1892.07C2067.22 1956.35 2048.75 2008.77 2011.11 2044.5C1973.46 2080.23 1920.15 2095.95 1855.91 2093.72C1791.66 2091.49 1716.52 2071.31 1635.29 2035.28C1472.83 1963.22 1286.11 1827.83 1113.67 1646.16C941.226 1464.49 815.735 1270.98 752.236 1104.99C720.485 1022 704.243 945.906 705.361 881.63C706.479 817.355 724.955 764.935 762.597 729.205C800.239 693.474 853.549 677.753 917.795 679.982C982.043 682.212 1057.18 702.394 1138.42 738.422C1300.87 810.477 1487.59 945.872 1660.03 1127.54Z" stroke="#2E2E2E"/>
<path d="M1664.52 1132.35C1833.76 1317 1955.86 1512.67 2016.45 1679.74C2046.75 1763.28 2061.66 1839.64 2059.42 1903.89C2057.18 1968.13 2037.79 2020.22 1999.53 2055.29C1961.27 2090.36 1907.7 2105.15 1843.5 2101.8C1779.3 2098.45 1704.52 2076.96 1623.93 2039.52C1462.76 1964.64 1278.43 1826 1109.19 1641.35C939.939 1456.7 817.844 1261.03 757.251 1093.96C726.954 1010.42 712.042 934.061 714.282 869.813C716.522 805.568 735.91 753.479 774.169 718.411C812.429 683.342 866.006 668.554 930.203 671.904C994.402 675.254 1069.18 696.745 1149.77 734.185C1310.95 809.065 1495.27 947.698 1664.52 1132.35Z" stroke="#2E2E2E"/>
<path d="M1668.92 1137.23C1834.91 1324.81 1953.57 1522.58 2011.24 1690.68C2040.08 1774.74 2053.65 1851.35 2050.29 1915.55C2046.93 1979.74 2026.64 2031.49 1987.77 2065.88C1948.91 2100.28 1895.08 2114.13 1830.95 2109.66C1766.82 2105.19 1692.43 2082.4 1612.51 2043.55C1452.66 1965.87 1270.79 1824.04 1104.79 1636.47C938.788 1448.89 820.127 1251.12 762.459 1083.02C733.625 998.964 720.047 922.352 723.408 858.154C726.769 793.958 747.063 742.214 785.929 707.819C824.795 673.424 878.621 659.573 942.75 664.043C1006.88 668.513 1081.27 691.306 1161.2 730.147C1321.04 807.828 1502.92 949.657 1668.92 1137.23Z" stroke="#2E2E2E"/>
<path d="M1673.23 1142.19C1835.93 1332.64 1951.12 1532.45 2005.85 1701.54C2033.21 1786.08 2045.45 1862.92 2040.97 1927.05C2036.48 1991.17 2015.29 2042.56 1975.83 2076.27C1936.37 2109.98 1882.31 2122.89 1818.27 2117.3C1754.23 2111.71 1680.24 2087.62 1601.01 2047.39C1442.55 1966.93 1263.17 1821.95 1100.47 1631.51C937.773 1441.06 822.582 1241.25 767.857 1072.17C740.494 987.623 728.255 910.786 732.736 846.656C737.217 782.528 758.411 731.147 797.871 697.435C837.331 663.724 891.392 650.814 955.432 656.403C1019.48 661.991 1093.46 686.079 1172.69 726.309C1331.16 806.768 1510.53 951.749 1673.23 1142.19Z" stroke="#2E2E2E"/>
<path d="M1677.46 1147.23C1836.81 1340.48 1948.49 1542.28 2000.26 1712.29C2026.14 1797.3 2037.04 1874.34 2031.44 1938.38C2025.84 2002.42 2003.75 2053.42 1963.71 2086.44C1923.67 2119.46 1869.39 2131.42 1805.46 2124.72C1741.52 2118.01 1667.97 2092.64 1589.45 2051.03C1432.41 1967.82 1255.6 1819.73 1096.25 1626.47C936.896 1433.22 825.209 1231.43 773.443 1061.41C747.56 976.403 736.664 899.364 742.264 835.322C747.863 771.282 769.95 720.279 809.993 687.261C850.035 654.243 904.313 642.279 968.246 648.984C1032.18 655.69 1105.73 681.065 1184.25 722.671C1341.29 805.884 1518.1 953.973 1677.46 1147.23Z" stroke="#2E2E2E"/>
<path d="M1681.59 1152.34C1837.55 1348.34 1945.69 1552.05 1994.49 1722.95C2018.88 1808.39 2028.43 1885.61 2021.71 1949.55C2015 2013.48 1992.02 2064.09 1951.41 2096.4C1910.8 2128.72 1856.32 2139.73 1792.51 2131.91C1728.71 2124.09 1655.61 2097.44 1577.83 2054.46C1422.27 1968.52 1248.06 1817.37 1092.11 1621.36C936.155 1425.36 828.007 1221.65 779.216 1050.76C754.82 965.308 745.271 888.091 751.987 824.156C758.703 760.224 781.677 709.614 822.29 677.3C862.903 644.986 917.381 633.971 981.188 641.791C1045 649.612 1118.09 676.266 1195.87 719.237C1351.43 805.177 1525.64 956.33 1681.59 1152.34Z" stroke="#2E2E2E"/>
<path d="M1685.64 1157.52C1838.15 1356.22 1942.73 1561.78 1988.53 1733.5C2011.43 1819.36 2019.63 1896.73 2011.8 1960.54C2003.97 2024.35 1980.11 2074.55 1938.94 2106.15C1897.77 2137.75 1843.11 2147.81 1779.45 2138.88C1715.79 2129.94 1643.17 2102.02 1566.15 2057.7C1412.11 1969.05 1240.57 1814.88 1088.06 1616.19C935.551 1417.49 830.975 1211.92 785.174 1040.2C762.273 954.343 754.073 876.97 761.904 813.163C769.734 749.357 793.588 699.156 834.759 667.556C875.929 635.955 930.591 625.893 994.252 634.825C1057.91 643.758 1130.54 671.684 1207.55 716.006C1361.59 804.648 1533.13 958.818 1685.64 1157.52Z" stroke="#2E2E2E"/>
<path d="M1689.6 1162.77C1838.62 1364.1 1939.59 1571.46 1982.39 1743.95C2003.79 1830.19 2010.63 1907.7 2001.69 1971.36C1992.75 2035.02 1968.02 2084.8 1926.31 2115.67C1884.59 2146.55 1829.76 2155.66 1766.27 2145.61C1702.77 2135.57 1630.65 2106.38 1554.41 2060.72C1401.95 1969.41 1233.12 1812.27 1084.1 1610.94C935.086 1409.61 834.114 1202.24 791.316 1029.75C769.917 943.507 763.069 866.004 772.012 802.342C780.955 738.683 805.681 688.906 847.397 658.029C889.113 627.152 943.942 618.045 1007.44 628.087C1070.93 638.13 1143.06 667.319 1219.29 712.978C1371.76 804.295 1540.58 961.436 1689.6 1162.77Z" stroke="#2E2E2E"/>
<path d="M1693.46 1168.08C1838.94 1371.98 1936.28 1581.08 1976.06 1754.29C1995.95 1840.89 2001.45 1918.5 1991.4 1982C1981.34 2045.49 1955.75 2094.83 1913.5 2124.98C1871.25 2155.12 1816.28 2163.27 1752.97 2152.12C1689.65 2140.97 1618.05 2110.53 1542.63 2063.54C1391.78 1969.58 1225.72 1809.52 1080.24 1605.62C934.757 1401.72 837.419 1192.63 797.639 1019.41C777.748 932.808 772.253 855.197 782.307 791.701C792.359 728.208 817.95 678.87 860.199 648.726C902.447 618.582 957.427 610.433 1020.74 621.581C1084.05 632.731 1155.65 663.174 1231.08 710.157C1381.93 804.121 1547.98 964.184 1693.46 1168.08Z" stroke="#2E2E2E"/>
<path d="M1697.23 1173.47C1839.14 1379.88 1932.81 1590.63 1969.56 1764.51C1987.94 1851.45 1992.08 1929.15 1980.92 1992.46C1969.76 2055.77 1943.31 2104.65 1900.54 2134.05C1857.77 2163.46 1802.66 2170.65 1739.55 2158.39C1676.45 2146.14 1605.39 2114.45 1530.79 2066.16C1381.61 1969.58 1218.37 1806.64 1076.47 1600.23C934.567 1393.83 840.893 1183.07 804.141 1009.19C785.765 922.247 781.626 844.552 792.786 781.241C803.945 717.933 830.393 669.049 873.161 639.647C915.929 610.244 971.043 603.056 1034.15 615.308C1097.26 627.561 1168.32 659.25 1242.91 707.541C1392.1 804.124 1555.33 967.06 1697.23 1173.47Z" stroke="#2E2E2E"/>
<path d="M1700.91 1178.92C1839.19 1387.77 1929.17 1600.13 1962.88 1774.63C1979.74 1861.87 1982.52 1939.63 1970.26 2002.74C1957.99 2065.84 1930.7 2114.26 1887.42 2142.91C1844.15 2171.56 1788.92 2177.78 1726.03 2164.43C1663.15 2151.08 1592.65 2118.16 1518.91 2068.57C1371.44 1969.4 1211.07 1803.64 1072.79 1594.78C934.514 1385.93 844.532 1173.57 810.821 999.075C793.965 911.827 791.182 834.072 803.445 770.966C815.708 707.862 843.005 659.447 886.28 630.795C929.554 602.144 984.785 595.919 1047.67 609.27C1110.55 622.622 1181.05 655.546 1254.79 705.133C1402.27 804.304 1562.63 970.065 1700.91 1178.92Z" stroke="#2E2E2E"/>
<path d="M1704.49 1184.43C1839.1 1395.66 1925.36 1609.56 1956.03 1784.62C1971.36 1872.15 1972.78 1949.94 1959.42 2012.82C1946.06 2075.7 1917.92 2123.64 1874.15 2151.53C1830.38 2179.42 1775.05 2184.68 1712.41 2170.23C1649.77 2155.78 1579.86 2121.64 1507 2070.77C1361.27 1969.04 1203.82 1800.51 1069.21 1589.27C934.598 1378.04 848.337 1164.14 817.676 989.081C802.345 901.552 800.92 823.76 814.282 760.878C827.644 697.998 855.783 650.066 899.551 622.174C943.319 594.283 998.65 589.022 1061.29 603.469C1123.93 617.917 1193.84 652.066 1266.71 702.932C1412.43 804.662 1569.88 973.196 1704.49 1184.43Z" stroke="#2E2E2E"/>
<path d="M1707.98 1190C1838.88 1403.56 1921.4 1618.93 1949 1794.49C1962.8 1882.28 1962.86 1960.08 1948.41 2022.72C1933.95 2085.36 1904.98 2132.79 1860.73 2159.92C1816.48 2187.04 1761.07 2191.33 1698.69 2175.8C1636.31 2160.26 1567.01 2124.89 1495.04 2072.76C1351.11 1968.51 1196.63 1797.25 1065.73 1583.7C934.821 1370.15 852.306 1154.77 824.705 979.209C810.904 891.426 810.836 813.62 825.294 750.981C839.752 688.343 868.722 640.91 912.97 613.786C957.218 586.663 1012.63 582.369 1075.01 597.907C1137.39 613.446 1206.7 648.81 1278.66 700.939C1422.59 805.197 1577.07 976.453 1707.98 1190Z" stroke="#2E2E2E"/>
<path d="M1711.36 1195.64C1838.52 1411.44 1917.26 1628.22 1941.8 1804.24C1954.06 1892.25 1952.77 1970.05 1937.22 2032.42C1921.68 2094.8 1891.88 2141.72 1847.17 2168.07C1802.45 2194.41 1746.97 2197.74 1684.87 2181.12C1622.77 2164.49 1554.1 2127.92 1483.06 2074.55C1340.97 1967.79 1189.5 1793.87 1062.34 1578.06C935.182 1362.26 856.438 1145.48 831.905 969.459C819.639 881.449 820.929 803.654 836.478 741.276C852.026 678.901 881.82 631.98 926.535 605.633C971.25 579.286 1026.73 575.96 1088.83 592.584C1150.93 609.209 1219.6 645.777 1290.65 699.155C1432.73 805.909 1584.2 979.835 1711.36 1195.64Z" stroke="#2E2E2E"/>
<path d="M1714.65 1201.33C1838.02 1419.32 1912.97 1637.44 1934.43 1813.86C1945.16 1902.07 1942.51 1979.83 1925.87 2041.93C1909.24 2104.03 1878.63 2150.42 1833.46 2175.98C1788.3 2201.55 1732.77 2203.9 1670.97 2186.2C1609.17 2168.49 1541.14 2130.73 1471.04 2076.12C1330.84 1966.9 1182.42 1790.36 1059.05 1572.37C935.68 1354.38 860.731 1136.26 839.274 959.838C828.546 871.627 831.193 793.866 847.829 731.769C864.463 669.675 895.071 623.282 940.239 597.719C985.407 572.156 1040.94 569.799 1102.74 587.504C1164.54 605.21 1232.56 642.972 1302.66 697.581C1442.86 806.798 1591.28 983.342 1714.65 1201.33Z" stroke="#2E2E2E"/>
<path d="M1717.84 1207.08C1837.39 1427.19 1908.52 1646.59 1926.89 1823.36C1936.08 1911.74 1932.07 1989.44 1914.36 2051.24C1896.64 2113.03 1865.23 2158.89 1819.62 2183.66C1774.02 2208.43 1718.45 2209.82 1656.97 2191.03C1595.49 2172.25 1528.13 2133.31 1459 2077.49C1320.72 1965.84 1175.41 1786.73 1055.86 1566.62C936.314 1346.51 865.184 1127.12 846.809 950.347C837.622 861.962 841.626 784.26 859.343 722.463C877.058 660.668 908.472 614.816 954.079 590.045C999.686 565.274 1055.25 563.887 1116.73 582.668C1178.21 601.45 1245.57 640.393 1314.71 696.217C1452.98 807.865 1598.29 986.971 1717.84 1207.08Z" stroke="#2E2E2E"/>
<path d="M1720.92 1212.88C1836.61 1435.05 1903.9 1655.65 1919.19 1832.71C1926.84 1921.25 1921.48 1998.87 1902.68 2060.34C1883.89 2121.82 1851.68 2167.12 1805.65 2191.09C1759.62 2215.06 1704.04 2215.48 1642.9 2195.63C1581.75 2175.77 1515.08 2135.66 1446.93 2078.64C1310.63 1964.6 1168.47 1782.98 1052.78 1560.82C937.088 1338.65 869.797 1118.05 854.51 940.988C846.866 852.456 852.226 774.835 871.019 713.357C889.81 651.881 922.019 606.584 968.051 582.613C1014.08 558.642 1069.66 558.224 1130.8 578.076C1191.95 597.928 1258.62 638.04 1326.77 695.063C1463.07 809.106 1605.24 990.722 1720.92 1212.88Z" stroke="#2E2E2E"/>
<path d="M1723.91 1218.74C1835.7 1442.89 1899.14 1664.63 1911.33 1841.94C1917.43 1930.59 1910.71 2008.1 1890.85 2069.24C1870.99 2130.38 1837.99 2175.11 1791.55 2198.27C1745.11 2221.44 1689.53 2220.89 1628.74 2199.97C1567.95 2179.05 1502 2137.79 1434.85 2079.58C1300.56 1963.18 1161.59 1779.11 1049.79 1554.96C937.997 1330.81 874.567 1109.07 862.373 931.765C856.275 843.113 862.989 765.598 882.851 704.457C902.713 643.318 935.707 598.59 982.151 575.426C1028.59 552.263 1084.17 552.815 1144.96 573.73C1205.75 594.646 1271.71 635.916 1338.85 694.12C1473.15 810.525 1612.12 994.593 1723.91 1218.74Z" stroke="#2E2E2E"/>
<path d="M1726.79 1224.65C1834.66 1450.71 1894.21 1673.53 1903.31 1851.02C1907.86 1939.77 1899.79 2017.15 1878.86 2077.94C1857.94 2138.72 1824.17 2182.86 1777.33 2205.21C1730.49 2227.56 1674.93 2226.04 1614.52 2204.07C1554.1 2182.1 1488.87 2139.68 1422.75 2080.31C1290.51 1961.58 1154.77 1775.12 1046.91 1549.05C939.044 1322.99 879.493 1100.17 870.395 922.682C865.846 833.937 873.911 756.55 894.837 695.765C915.763 634.982 949.533 590.837 996.374 568.487C1043.21 546.138 1098.77 547.66 1159.19 569.633C1219.6 591.607 1284.83 634.021 1350.95 693.388C1483.19 812.119 1618.93 998.585 1726.79 1224.65Z" stroke="#2E2E2E"/>
<path d="M1729.57 1230.61C1833.48 1458.52 1889.13 1682.34 1895.13 1859.96C1898.13 1948.77 1888.71 2026.01 1866.73 2086.42C1844.75 2146.83 1810.21 2190.38 1762.99 2211.9C1715.76 2233.43 1660.24 2230.94 1600.22 2207.92C1540.2 2184.89 1475.72 2141.35 1410.64 2080.83C1280.5 1959.81 1148.03 1771.01 1044.13 1543.09C940.226 1315.18 884.574 1091.36 878.574 913.738C875.575 824.928 884.99 747.694 906.974 687.283C928.957 626.875 963.492 583.326 1010.72 561.797C1057.94 540.268 1113.46 542.759 1173.48 565.783C1233.51 588.808 1297.98 632.355 1363.06 692.866C1493.21 813.887 1625.67 1002.69 1729.57 1230.61Z" stroke="#2E2E2E"/>
<path d="M1732.25 1236.61C1832.16 1466.3 1883.9 1691.06 1886.79 1868.76C1888.24 1957.61 1877.48 2034.67 1854.45 2094.69C1831.41 2154.7 1796.12 2197.64 1748.53 2218.34C1700.94 2239.04 1645.47 2235.58 1585.86 2211.52C1526.25 2187.45 1462.54 2142.78 1398.53 2081.14C1270.51 1957.87 1141.37 1766.78 1041.46 1537.09C941.546 1307.4 889.808 1082.64 886.909 904.94C885.46 816.09 896.221 739.032 919.256 679.014C942.29 618.999 977.58 576.059 1025.17 555.358C1072.76 534.656 1128.24 538.116 1187.85 562.184C1247.46 586.253 1311.16 630.919 1375.17 692.556C1503.19 815.83 1632.34 1006.92 1732.25 1236.61Z" stroke="#2E2E2E"/>
<path d="M1734.82 1242.66C1830.7 1474.06 1878.51 1699.69 1878.31 1877.41C1878.2 1966.27 1866.1 2043.13 1842.02 2102.74C1817.94 2162.34 1781.91 2204.66 1733.96 2224.53C1686.02 2244.4 1630.61 2239.97 1571.43 2214.86C1512.25 2189.76 1449.33 2143.99 1386.41 2081.24C1260.56 1955.75 1134.77 1762.44 1038.89 1531.04C942.999 1299.64 895.192 1074.01 895.395 896.288C895.497 807.427 907.601 730.569 931.68 670.962C955.758 611.358 991.792 569.041 1039.74 549.173C1087.68 529.305 1143.09 533.733 1202.27 558.837C1261.45 583.943 1324.37 629.714 1387.29 692.459C1513.14 817.948 1638.93 1011.26 1734.82 1242.66Z" stroke="#2E2E2E"/>
<path d="M1737.28 1248.76C1829.11 1481.8 1872.97 1708.23 1869.67 1885.92C1868.02 1974.76 1854.57 2051.4 1829.46 2110.57C1804.34 2169.75 1767.58 2211.43 1719.29 2230.46C1671 2249.49 1615.69 2244.09 1556.95 2217.96C1498.22 2191.83 1436.11 2144.96 1374.29 2081.13C1250.65 1953.46 1128.26 1757.98 1036.42 1524.94C944.589 1291.91 900.726 1065.48 904.031 887.786C905.683 798.94 919.128 722.305 944.243 663.128C969.358 603.953 1006.12 562.271 1054.41 543.243C1102.7 524.215 1158.01 529.609 1216.75 555.743C1275.48 581.877 1337.59 628.739 1399.41 692.573C1523.05 820.239 1645.45 1015.72 1737.28 1248.76Z" stroke="#2E2E2E"/>
<path d="M1739.64 1254.89C1827.39 1489.5 1867.29 1716.66 1860.89 1894.27C1857.68 1983.07 1842.9 2059.46 1816.76 2118.19C1790.62 2176.92 1753.13 2217.95 1704.52 2236.13C1655.91 2254.31 1600.69 2247.96 1542.42 2220.8C1484.15 2193.65 1422.87 2145.71 1362.18 2080.8C1240.79 1951 1121.82 1753.41 1034.07 1518.81C946.314 1284.2 906.41 1057.04 912.815 879.435C916.018 790.632 930.797 714.243 956.942 655.513C983.085 596.785 1020.57 555.751 1069.18 537.569C1117.8 519.386 1173.01 525.745 1231.28 552.9C1289.55 580.056 1350.83 627.994 1411.53 692.897C1532.92 822.702 1651.88 1020.29 1739.64 1254.89Z" stroke="#2E2E2E"/>
<path d="M1741.89 1261.07C1825.53 1497.17 1861.46 1725 1851.96 1902.46C1847.21 1991.2 1831.1 2067.31 1803.93 2125.58C1776.77 2183.84 1738.57 2224.22 1689.65 2241.55C1640.73 2258.88 1585.63 2251.56 1527.85 2223.39C1470.06 2195.22 1409.62 2146.22 1350.07 2080.27C1230.96 1948.36 1115.46 1748.73 1031.82 1512.63C948.172 1276.53 912.239 1048.71 921.743 871.239C926.495 782.505 942.606 706.386 969.771 648.121C996.935 589.858 1035.13 549.485 1084.06 532.154C1132.98 514.823 1188.07 522.144 1245.86 550.312C1303.64 578.48 1364.08 627.481 1423.63 693.433C1542.74 825.337 1658.24 1024.97 1741.89 1261.07Z" stroke="#2E2E2E"/>
<path d="M1744.03 1267.29C1823.54 1504.81 1855.49 1733.23 1842.89 1910.5C1836.59 1999.14 1819.15 2074.96 1790.97 2132.75C1762.8 2190.53 1723.9 2230.23 1674.68 2246.7C1625.47 2263.18 1570.51 2254.89 1513.22 2225.72C1455.94 2196.55 1396.37 2146.5 1337.97 2079.52C1221.19 1945.56 1109.19 1743.94 1029.68 1506.41C950.165 1268.89 918.213 1040.47 930.812 863.201C937.112 774.563 954.549 698.737 982.727 640.955C1010.9 583.175 1049.8 543.475 1099.02 527C1148.23 510.525 1203.19 518.807 1260.48 547.979C1317.76 577.152 1377.34 627.2 1435.73 694.181C1552.51 828.143 1664.52 1029.76 1744.03 1267.29Z" stroke="#2E2E2E"/>
<path d="M1746.06 1273.54C1821.41 1512.42 1849.37 1741.35 1833.68 1918.38C1825.84 2006.89 1807.08 2082.4 1777.9 2139.69C1748.71 2196.97 1709.13 2235.98 1659.63 2251.59C1610.14 2267.21 1555.33 2257.97 1498.57 2227.8C1441.8 2197.63 1383.11 2146.55 1325.89 2078.56C1211.46 1942.58 1103 1739.04 1027.64 1500.16C952.29 1261.29 924.329 1032.35 940.021 855.322C947.867 766.808 966.624 691.297 995.806 634.016C1024.99 576.737 1064.57 537.721 1114.07 522.108C1163.56 506.494 1218.37 515.734 1275.14 545.901C1331.91 576.069 1390.6 627.149 1447.81 695.14C1562.24 831.12 1670.71 1034.66 1746.06 1273.54Z" stroke="#2E2E2E"/>
<path d="M1747.98 1279.82C1819.16 1519.98 1843.12 1749.37 1824.34 1926.1C1814.95 2014.46 1794.88 2089.63 1764.7 2146.4C1734.52 2203.16 1694.26 2241.48 1644.5 2256.22C1594.74 2270.97 1540.1 2260.77 1483.87 2229.62C1427.64 2198.47 1369.85 2146.37 1313.83 2077.39C1201.79 1939.44 1096.89 1734.03 1025.72 1493.88C954.548 1253.72 930.587 1024.33 949.366 847.604C958.756 759.24 978.828 684.068 1009.01 627.305C1039.18 570.544 1079.44 532.225 1129.2 517.478C1178.96 502.731 1233.6 512.925 1289.83 544.079C1346.06 575.233 1403.85 627.329 1459.87 696.308C1571.91 834.265 1676.81 1039.67 1747.98 1279.82Z" stroke="#2E2E2E"/>
<path d="M1749.79 1286.14C1816.77 1527.51 1836.72 1757.28 1814.86 1933.65C1803.93 2021.84 1782.55 2096.65 1751.38 2152.87C1720.22 2209.1 1679.3 2246.71 1629.29 2260.59C1579.28 2274.46 1524.83 2263.32 1469.15 2231.19C1413.47 2199.06 1356.6 2145.96 1301.79 2076.01C1192.17 1936.12 1090.88 1728.92 1023.91 1487.56C956.937 1246.2 936.983 1016.42 958.843 840.051C969.774 751.865 991.155 677.055 1022.32 620.827C1053.48 564.601 1094.4 526.991 1144.41 513.114C1194.42 499.238 1248.88 510.384 1304.55 542.514C1360.23 574.645 1417.11 627.742 1471.91 697.688C1581.53 837.579 1682.82 1044.78 1749.79 1286.14Z" stroke="#2E2E2E"/>
<path d="M1751.5 1292.49C1814.25 1534.99 1830.19 1765.07 1805.25 1941.04C1792.78 2029.02 1770.1 2103.44 1737.96 2159.12C1705.82 2214.79 1664.25 2251.68 1614 2264.68C1563.76 2277.69 1509.51 2265.59 1454.4 2232.49C1399.29 2199.4 1343.35 2145.31 1289.77 2074.42C1182.62 1932.64 1084.95 1723.7 1022.21 1481.21C959.457 1238.71 943.517 1008.63 968.452 832.664C980.92 744.682 1003.6 670.257 1035.74 614.581C1067.88 558.908 1109.45 522.017 1159.7 509.016C1209.94 496.014 1264.19 508.109 1319.3 541.206C1374.41 574.304 1430.35 628.385 1483.93 699.278C1591.09 841.06 1688.75 1050 1751.5 1292.49Z" stroke="#2E2E2E"/>
<path d="M1753.09 1298.87C1811.6 1542.42 1823.52 1772.75 1795.52 1948.25C1781.51 2036.01 1757.54 2110.02 1724.43 2165.13C1691.32 2220.23 1649.11 2256.39 1598.65 2268.52C1548.18 2280.64 1494.16 2267.6 1439.63 2233.54C1385.11 2199.49 1330.12 2144.44 1277.79 2072.62C1173.12 1928.99 1079.12 1718.38 1020.61 1474.83C962.108 1231.28 950.185 1000.95 978.188 825.447C992.189 737.695 1016.17 663.677 1049.27 608.571C1082.38 553.467 1124.59 517.308 1175.05 505.185C1225.52 493.062 1279.55 506.102 1334.07 540.156C1388.6 574.211 1443.58 629.26 1495.91 701.076C1600.58 844.707 1694.58 1055.32 1753.09 1298.87Z" stroke="#2E2E2E"/>
<path d="M1754.57 1305.28C1808.81 1549.81 1816.72 1780.32 1785.65 1955.3C1770.12 2042.79 1744.86 2116.38 1710.79 2170.9C1676.73 2225.42 1633.9 2260.84 1583.23 2272.08C1532.56 2283.32 1478.77 2269.34 1424.85 2234.34C1370.92 2199.34 1316.91 2143.34 1265.84 2070.62C1163.69 1925.18 1073.38 1712.96 1019.13 1468.42C964.887 1223.89 956.986 993.386 988.047 818.401C1003.58 730.907 1028.84 657.319 1062.91 602.799C1096.97 548.281 1139.81 512.864 1190.47 501.624C1241.14 490.384 1294.93 504.365 1348.86 539.365C1402.78 574.366 1456.79 630.366 1507.87 703.085C1610.01 848.521 1700.32 1060.74 1754.57 1305.28Z" stroke="#2E2E2E"/>
<path d="M1755.93 1311.71C1805.91 1557.15 1809.78 1787.76 1775.67 1962.17C1758.62 2049.38 1732.07 2122.52 1697.06 2176.44C1662.05 2230.35 1618.61 2265.02 1567.75 2275.37C1516.89 2285.72 1463.35 2270.81 1410.05 2234.87C1356.75 2198.93 1303.72 2142 1253.92 2068.4C1154.33 1921.2 1067.74 1707.44 1017.77 1461.99C967.795 1216.55 963.918 985.944 998.028 811.527C1015.08 724.318 1041.63 651.182 1076.64 597.265C1111.65 543.349 1155.1 508.685 1205.95 498.331C1256.81 487.977 1310.35 502.895 1363.65 538.831C1416.96 574.767 1469.99 631.702 1519.78 705.301C1619.37 852.497 1705.96 1066.26 1755.93 1311.71Z" stroke="#2E2E2E"/>
<path d="M1757.19 1318.16C1802.87 1564.44 1802.72 1795.08 1765.57 1968.87C1747 2055.77 1719.18 2128.43 1683.23 2181.73C1647.29 2235.03 1603.24 2268.93 1552.21 2278.39C1501.19 2287.86 1447.91 2272.01 1395.25 2235.15C1342.58 2198.29 1290.55 2140.43 1242.05 2065.98C1145.04 1917.07 1062.19 1701.82 1016.51 1455.54C970.831 1209.26 970.979 978.624 1008.13 804.829C1026.7 717.931 1054.52 645.269 1090.47 591.971C1126.41 538.675 1170.46 504.774 1221.49 495.31C1272.52 485.845 1325.79 501.695 1378.46 538.555C1431.12 575.417 1483.15 633.268 1531.65 707.725C1628.66 856.637 1711.51 1071.88 1757.19 1318.16Z" stroke="#2E2E2E"/>
<path d="M1758.33 1324.63C1799.71 1571.67 1795.53 1802.27 1755.36 1975.39C1735.27 2061.95 1706.19 2134.12 1669.32 2186.78C1632.45 2239.44 1587.82 2272.57 1536.63 2281.14C1485.44 2289.72 1432.46 2272.94 1380.44 2235.16C1328.42 2197.39 1277.41 2138.64 1230.22 2063.35C1135.83 1912.76 1056.74 1696.11 1015.37 1449.07C973.995 1202.03 978.168 971.427 1018.34 798.308C1038.43 711.747 1067.52 639.581 1104.39 586.919C1141.26 534.259 1185.89 501.132 1237.07 492.559C1288.26 483.986 1341.25 500.763 1393.26 538.537C1445.28 576.312 1496.29 635.063 1543.49 710.355C1637.88 860.937 1716.96 1077.59 1758.33 1324.63Z" stroke="#2E2E2E"/>
<path d="M1759.36 1331.13C1796.42 1578.85 1788.22 1809.34 1745.03 1981.74C1723.43 2067.93 1693.09 2139.58 1655.31 2191.59C1617.53 2243.6 1572.33 2275.94 1521 2283.62C1469.67 2291.3 1416.98 2273.6 1365.64 2234.92C1314.29 2196.25 1264.31 2136.61 1218.43 2060.51C1126.68 1908.3 1051.4 1690.3 1014.34 1442.58C977.282 1194.85 985.479 964.359 1028.67 791.967C1050.27 705.77 1080.61 634.123 1118.39 582.112C1156.17 530.103 1201.37 497.761 1252.7 490.082C1304.03 482.404 1356.72 500.104 1408.07 538.779C1459.42 577.457 1509.39 637.089 1555.27 713.193C1647.02 865.399 1722.3 1083.4 1759.36 1331.13Z" stroke="#2E2E2E"/>
<path d="M1760.28 1337.64C1793.01 1585.97 1780.79 1816.28 1734.59 1987.9C1711.5 2073.7 1679.91 2144.81 1641.23 2196.15C1602.54 2247.5 1556.78 2279.04 1505.33 2285.83C1453.87 2292.61 1401.5 2273.99 1350.84 2234.42C1300.17 2194.86 1251.24 2134.36 1206.7 2057.47C1117.62 1903.68 1046.15 1684.4 1013.42 1436.07C980.695 1187.73 992.914 957.418 1039.11 785.806C1062.2 699.999 1093.79 628.893 1132.48 577.549C1171.16 526.207 1216.92 494.658 1268.37 487.877C1319.83 481.096 1372.2 499.712 1422.86 539.278C1473.53 578.846 1522.46 639.341 1567 716.234C1656.08 870.019 1727.55 1089.3 1760.28 1337.64Z" stroke="#2E2E2E"/>
<path d="M1761.08 1344.16C1789.47 1593.03 1773.23 1823.09 1724.05 1993.87C1699.46 2079.26 1666.64 2149.81 1627.06 2200.47C1587.49 2251.13 1541.19 2281.87 1489.62 2287.76C1438.06 2293.64 1386.02 2274.11 1336.05 2233.67C1286.08 2193.22 1238.22 2131.88 1195.03 2054.22C1108.65 1898.91 1041.01 1678.41 1012.62 1429.54C984.232 1180.67 1000.47 950.608 1049.65 779.829C1074.24 694.438 1107.06 623.893 1146.64 573.233C1186.21 522.574 1232.52 491.829 1284.08 485.946C1335.65 480.064 1387.68 499.591 1437.65 540.036C1487.62 580.482 1535.48 641.822 1578.68 719.481C1665.06 874.796 1732.69 1095.3 1761.08 1344.16Z" stroke="#2E2E2E"/>
<path d="M1761.77 1350.7C1785.81 1600.02 1765.56 1829.77 1713.41 1999.67C1687.33 2084.62 1653.28 2154.58 1612.83 2204.54C1572.37 2254.5 1525.54 2284.43 1473.88 2289.41C1422.22 2294.39 1370.53 2273.96 1321.28 2232.65C1272.02 2191.34 1225.24 2129.17 1183.41 2050.77C1099.75 1893.97 1035.98 1672.33 1011.93 1423C987.892 1173.68 1008.14 943.932 1060.3 774.036C1086.37 689.087 1120.42 619.127 1160.87 569.165C1201.33 519.204 1248.16 489.271 1299.82 484.29C1351.48 479.308 1403.17 499.741 1452.42 541.051C1501.68 582.363 1548.46 644.529 1590.29 722.93C1673.95 879.73 1737.73 1101.38 1761.77 1350.7Z" stroke="#2E2E2E"/>
<path d="M1762.34 1357.25C1782.03 1606.95 1757.77 1836.31 1702.66 2005.27C1675.1 2089.75 1639.84 2159.11 1598.52 2208.36C1557.2 2257.6 1509.86 2286.71 1458.12 2290.79C1406.38 2294.87 1355.05 2273.54 1306.53 2231.38C1258 2189.21 1212.31 2126.24 1171.85 2047.12C1090.94 1888.88 1031.05 1666.16 1011.36 1416.45C991.673 1166.75 1015.93 937.39 1071.04 768.43C1098.6 683.949 1133.86 614.593 1175.18 565.345C1216.5 516.098 1263.84 486.987 1315.58 482.908C1367.32 478.829 1418.65 500.161 1467.17 542.324C1515.7 584.489 1561.39 647.463 1601.85 726.581C1682.76 884.817 1742.65 1107.54 1762.34 1357.25Z" stroke="#2E2E2E"/>
<path d="M1762.8 1363.81C1778.13 1613.82 1749.87 1842.72 1691.82 2010.69C1662.79 2094.68 1626.33 2163.41 1584.15 2211.93C1541.98 2260.44 1494.13 2288.72 1442.33 2291.9C1390.53 2295.08 1339.58 2272.85 1291.8 2229.85C1244.02 2186.84 1199.43 2123.08 1160.36 2043.27C1082.23 1883.64 1026.23 1659.91 1010.9 1409.9C995.575 1159.89 1023.83 930.985 1081.88 763.013C1110.91 679.026 1147.38 610.296 1189.55 561.776C1231.72 513.258 1279.57 484.978 1331.37 481.802C1383.17 478.627 1434.12 500.851 1481.9 543.855C1529.68 586.861 1574.27 650.622 1613.34 730.435C1691.47 890.058 1747.48 1113.79 1762.8 1363.81Z" stroke="#2E2E2E"/>
<path d="M1763.15 1370.37C1774.11 1620.61 1741.86 1848.98 1680.89 2015.92C1650.4 2099.38 1612.74 2167.47 1569.72 2215.24C1526.71 2263.02 1478.38 2290.46 1426.53 2292.73C1374.68 2295 1324.13 2271.89 1277.1 2228.06C1230.08 2184.23 1186.61 2119.7 1148.94 2039.22C1073.6 1878.25 1021.52 1653.57 1010.56 1403.33C999.595 1153.09 1031.84 924.719 1092.82 757.785C1123.3 674.318 1160.96 606.235 1203.98 558.458C1246.99 510.684 1295.32 483.243 1347.17 480.972C1399.02 478.701 1449.57 501.811 1496.6 545.642C1543.62 589.475 1587.09 654.005 1624.76 734.487C1700.1 895.45 1752.19 1120.13 1763.15 1370.37Z" stroke="#2E2E2E"/>
<path d="M1763.38 1376.94C1769.97 1627.33 1733.74 1855.11 1669.86 2020.95C1637.92 2103.88 1599.08 2171.29 1555.24 2218.31C1511.4 2265.33 1462.59 2291.92 1410.71 2293.29C1358.83 2294.65 1308.69 2270.66 1262.44 2226.02C1216.19 2181.37 1173.85 2116.09 1137.59 2034.96C1065.08 1872.71 1016.92 1647.16 1010.33 1396.76C1003.73 1146.37 1039.96 918.593 1103.84 752.75C1135.78 669.827 1174.62 602.412 1218.46 555.393C1262.3 508.376 1311.11 481.783 1362.99 480.418C1414.87 479.052 1465.01 503.041 1511.26 547.686C1557.52 592.333 1599.85 657.611 1636.11 738.739C1708.63 900.992 1756.79 1126.55 1763.38 1376.94Z" stroke="#2E2E2E"/>
<path d="M1763.49 1383.51C1765.71 1633.98 1725.52 1861.09 1658.75 2025.79C1625.37 2108.15 1585.36 2174.87 1540.7 2221.12C1496.05 2267.37 1446.79 2293.1 1394.89 2293.56C1342.99 2294.02 1293.28 2269.16 1247.81 2223.72C1202.35 2178.27 1161.16 2112.26 1126.32 2030.51C1056.65 1867.02 1012.43 1640.66 1010.21 1390.19C1007.99 1139.72 1048.19 912.61 1114.95 747.907C1148.33 665.554 1188.35 598.827 1233 552.58C1277.65 506.336 1326.92 480.599 1378.81 480.139C1430.71 479.679 1480.42 504.539 1525.89 549.984C1571.36 595.432 1612.55 661.439 1647.38 743.187C1717.06 906.681 1761.27 1133.04 1763.49 1383.51Z" stroke="#2E2E2E"/>
<path d="M1763.49 1390.09C1761.34 1640.56 1717.19 1866.93 1647.56 2030.44C1612.75 2112.2 1571.57 2178.22 1526.12 2223.68C1480.66 2269.14 1430.96 2294.01 1379.06 2293.57C1327.16 2293.12 1277.89 2267.4 1233.23 2221.16C1188.56 2174.93 1148.53 2108.21 1115.12 2025.87C1048.32 1861.18 1008.06 1634.09 1010.21 1383.62C1012.36 1133.15 1056.51 906.772 1126.14 743.259C1160.96 661.502 1202.13 595.483 1247.58 550.023C1293.04 504.565 1342.74 479.691 1394.64 480.137C1446.54 480.583 1495.81 506.307 1540.47 552.539C1585.14 598.773 1625.17 665.489 1658.58 747.833C1725.39 912.518 1765.64 1139.62 1763.49 1390.09Z" stroke="#2E2E2E"/>
<path d="M1763.38 1396.66C1756.86 1647.05 1708.76 1872.62 1636.29 2034.9C1600.05 2116.03 1557.73 2181.32 1511.49 2225.98C1465.25 2270.64 1415.12 2294.64 1363.24 2293.29C1311.36 2291.94 1262.54 2265.36 1218.69 2218.36C1174.84 2171.35 1135.98 2103.94 1104.01 2021.03C1040.09 1855.2 1003.8 1627.44 1010.32 1377.04C1016.85 1126.65 1064.94 901.08 1137.41 738.807C1173.65 657.669 1215.97 592.379 1262.21 547.719C1308.45 503.061 1358.58 479.059 1410.46 480.411C1462.34 481.762 1511.16 508.342 1555.01 555.346C1598.86 602.353 1637.73 669.758 1669.69 752.672C1733.61 918.498 1769.9 1146.26 1763.38 1396.66Z" stroke="#2E2E2E"/>
<path d="M1763.15 1403.23C1752.26 1653.47 1700.23 1878.17 1624.94 2039.15C1587.29 2119.64 1543.84 2184.18 1496.83 2228.03C1449.82 2271.87 1399.27 2295 1347.42 2292.74C1295.57 2290.48 1247.23 2263.06 1204.21 2215.29C1161.18 2167.53 1123.5 2099.46 1092.99 2016C1031.97 1849.08 999.659 1620.72 1010.55 1370.47C1021.44 1120.23 1073.47 895.536 1148.76 734.553C1186.41 654.06 1229.86 589.518 1276.87 545.673C1323.89 501.828 1374.43 478.705 1426.28 480.961C1478.13 483.218 1526.47 510.646 1569.5 558.408C1612.52 606.173 1650.2 674.246 1680.71 757.705C1741.73 924.621 1774.04 1152.99 1763.15 1403.23Z" stroke="#2E2E2E"/>
<path d="M1762.81 1409.79C1747.55 1659.81 1691.61 1883.56 1613.52 2043.21C1574.47 2123.03 1529.9 2186.8 1482.13 2229.82C1434.36 2272.84 1383.42 2295.08 1331.62 2291.92C1279.82 2288.75 1231.96 2260.49 1189.78 2211.98C1147.59 2163.47 1111.1 2094.75 1082.05 2010.77C1023.95 1842.82 995.637 1613.92 1010.89 1363.91C1026.15 1113.89 1082.09 890.142 1160.18 730.497C1199.23 650.673 1243.8 586.9 1291.57 543.881C1339.34 500.864 1390.28 478.626 1442.08 481.787C1493.89 484.949 1541.74 513.216 1583.93 561.722C1626.11 610.231 1662.6 678.951 1691.65 762.93C1749.75 930.886 1778.06 1159.78 1762.81 1409.79Z" stroke="#2E2E2E"/>
<path d="M1762.35 1416.35C1742.73 1666.06 1682.89 1888.8 1602.03 2047.06C1561.6 2126.19 1515.92 2189.18 1467.4 2231.36C1418.89 2273.53 1367.57 2294.88 1315.83 2290.81C1264.09 2286.75 1216.74 2257.65 1175.4 2208.42C1134.07 2159.18 1098.79 2089.83 1071.21 2005.36C1016.05 1836.41 991.734 1607.06 1011.35 1357.35C1030.97 1107.64 1090.81 884.899 1171.67 726.641C1212.1 647.511 1257.78 584.525 1306.3 542.347C1354.81 500.17 1406.13 478.824 1457.87 482.889C1509.61 486.954 1556.96 516.052 1598.3 565.287C1639.63 614.525 1674.91 683.871 1702.49 768.344C1757.65 937.288 1781.97 1166.64 1762.35 1416.35Z" stroke="#2E2E2E"/>
<path d="M1761.78 1422.9C1737.8 1672.23 1674.09 1893.89 1590.47 2050.72C1548.67 2129.13 1501.9 2191.31 1452.65 2232.63C1403.41 2273.96 1351.73 2294.4 1300.07 2289.44C1248.4 2284.47 1201.56 2254.55 1161.1 2204.6C1120.63 2154.65 1086.56 2084.7 1060.46 1999.76C1008.26 1829.87 987.95 1600.13 1011.92 1350.8C1035.9 1101.47 1099.61 879.809 1183.23 722.986C1225.03 644.574 1271.8 582.395 1321.05 541.07C1370.29 499.746 1421.97 479.299 1473.63 484.266C1525.3 489.234 1572.14 519.154 1612.6 569.103C1653.07 619.054 1687.14 689.005 1713.24 773.947C1765.44 943.828 1785.75 1173.57 1761.78 1422.9Z" stroke="#2E2E2E"/>
<path d="M1761.09 1429.44C1732.77 1678.31 1665.2 1898.83 1578.86 2054.17C1535.69 2131.84 1487.84 2193.19 1437.88 2233.65C1387.93 2274.11 1335.89 2293.65 1284.33 2287.78C1232.76 2281.92 1186.45 2251.18 1146.86 2200.54C1107.27 2149.89 1074.43 2079.35 1049.82 1993.97C1000.59 1823.2 984.289 1593.14 1012.61 1344.26C1040.93 1095.39 1108.5 874.873 1194.84 719.533C1238.01 641.863 1285.86 580.509 1335.82 540.05C1385.78 499.592 1437.81 480.05 1489.37 485.918C1540.94 491.786 1587.25 522.519 1626.84 573.167C1666.43 623.817 1699.27 694.352 1723.88 779.736C1773.11 950.503 1789.41 1180.56 1761.09 1429.44Z" stroke="#2E2E2E"/>
<path d="M1760.29 1435.96C1727.63 1684.31 1656.22 1903.61 1567.18 2057.42C1522.66 2134.32 1473.75 2194.83 1423.1 2234.41C1372.44 2273.99 1320.08 2292.63 1268.62 2285.86C1217.16 2279.09 1171.4 2247.55 1132.7 2196.22C1094 2144.89 1062.39 2073.79 1039.27 1987.99C993.032 1816.39 980.75 1586.08 1013.41 1337.74C1046.07 1089.4 1117.48 870.093 1206.52 716.284C1251.04 639.378 1299.95 578.87 1350.61 539.288C1401.26 499.708 1453.63 481.077 1505.08 487.845C1556.54 494.612 1602.31 526.148 1641 577.479C1679.7 628.812 1711.31 699.91 1734.43 785.711C1780.67 957.31 1792.95 1187.62 1760.29 1435.96Z" stroke="#2E2E2E"/>
<path d="M1759.38 1442.47C1722.39 1690.21 1647.16 1908.23 1555.45 2060.46C1509.6 2136.58 1459.64 2196.23 1408.3 2234.92C1356.96 2273.61 1304.28 2291.32 1252.95 2283.66C1201.62 2275.99 1156.41 2243.66 1118.61 2191.66C1080.81 2139.66 1050.45 2068.02 1028.83 1981.83C985.595 1809.45 977.335 1578.96 1014.32 1331.23C1051.31 1083.49 1126.54 865.47 1218.25 713.238C1264.1 637.122 1314.06 577.476 1365.4 538.784C1416.74 500.094 1469.42 482.38 1520.75 490.045C1572.08 497.709 1617.29 530.039 1655.09 582.038C1692.89 634.039 1723.25 705.677 1744.87 791.868C1788.11 964.249 1796.37 1194.74 1759.38 1442.47Z" stroke="#2E2E2E"/>
<path d="M1758.35 1448.97C1717.04 1696.02 1638.02 1912.7 1543.67 2063.3C1496.49 2138.61 1445.5 2197.37 1393.49 2235.16C1341.49 2272.95 1288.51 2289.74 1237.32 2281.18C1186.13 2272.62 1141.49 2239.51 1104.61 2186.86C1067.72 2134.21 1038.62 2062.05 1018.5 1975.49C978.281 1802.39 974.045 1571.79 1015.35 1324.74C1056.66 1077.69 1135.68 861.006 1230.03 710.399C1277.21 635.094 1328.2 576.329 1380.21 538.539C1432.21 500.751 1485.2 483.959 1536.38 492.518C1587.57 501.077 1632.21 534.192 1669.1 586.842C1705.98 639.494 1735.08 711.652 1755.2 798.207C1795.42 971.316 1799.66 1201.92 1758.35 1448.97Z" stroke="#2E2E2E"/>
<path d="M1757.21 1455.44C1711.6 1701.73 1628.8 1917 1531.84 2065.94C1483.36 2140.41 1431.35 2198.27 1378.69 2235.15C1326.03 2272.02 1272.76 2287.89 1221.73 2278.44C1170.7 2268.99 1126.65 2235.1 1090.69 2181.81C1054.73 2128.52 1026.89 2055.87 1008.29 1968.98C971.091 1795.19 970.88 1564.55 1016.49 1318.26C1062.11 1071.97 1144.9 856.703 1241.86 707.765C1290.34 633.295 1342.36 575.429 1395.01 538.553C1447.67 501.678 1500.94 485.813 1551.97 495.264C1603 504.715 1647.06 538.604 1683.02 591.89C1718.98 645.178 1746.82 717.832 1765.41 804.725C1802.61 978.51 1802.82 1209.15 1757.21 1455.44Z" stroke="#2E2E2E"/>
<path d="M1755.95 1461.89C1706.05 1707.35 1619.51 1921.14 1519.97 2068.36C1470.19 2141.98 1417.18 2198.93 1363.88 2234.88C1310.59 2270.83 1257.05 2285.76 1206.2 2275.42C1155.34 2265.08 1111.88 2230.43 1076.86 2176.52C1041.83 2122.62 1015.26 2049.49 998.185 1962.28C964.027 1787.87 967.841 1557.27 1017.75 1311.81C1067.65 1066.35 1154.19 852.562 1253.73 705.338C1303.51 631.726 1356.52 574.776 1409.82 538.825C1463.11 502.875 1516.65 487.942 1567.5 498.282C1618.36 508.622 1661.82 543.275 1696.84 597.18C1731.87 651.088 1758.44 724.217 1775.51 811.421C1809.67 985.828 1805.86 1216.44 1755.95 1461.89Z" stroke="#2E2E2E"/>
<path d="M1754.59 1468.32C1700.41 1712.87 1610.16 1925.12 1508.05 2070.58C1457 2143.32 1403 2199.33 1349.09 2234.35C1295.18 2269.36 1241.39 2283.36 1190.72 2272.13C1140.05 2260.91 1097.2 2225.5 1063.12 2170.99C1029.04 2116.48 1003.76 2042.9 988.203 1955.41C957.094 1780.43 964.932 1549.93 1019.11 1305.38C1073.29 1060.83 1163.55 848.581 1265.65 703.118C1316.7 630.385 1370.7 574.37 1424.61 539.354C1478.53 504.339 1532.31 490.343 1582.99 501.569C1633.66 512.796 1676.5 548.201 1710.58 602.709C1744.66 657.22 1769.94 730.802 1785.5 818.291C1816.61 993.268 1808.77 1223.77 1754.59 1468.32Z" stroke="#2E2E2E"/>
<path d="M1753.11 1474.73C1694.67 1718.3 1600.73 1928.93 1496.1 2072.59C1443.79 2144.43 1388.82 2199.49 1334.3 2233.56C1279.79 2267.63 1225.76 2280.68 1175.3 2268.57C1124.83 2256.46 1082.61 2220.32 1049.49 2165.22C1016.37 2110.13 992.367 2036.11 978.341 1948.37C950.291 1772.87 962.15 1542.54 1020.59 1298.97C1079.03 1055.4 1172.97 844.766 1277.6 701.107C1329.91 629.276 1384.88 574.212 1439.4 540.142C1493.91 506.074 1547.94 493.019 1598.41 505.127C1648.87 517.236 1691.09 553.384 1724.22 608.479C1757.34 663.576 1781.34 737.587 1795.36 825.335C1823.41 1000.83 1811.55 1231.16 1753.11 1474.73Z" stroke="#2E2E2E"/>
<path d="M1751.52 1481.11C1688.84 1723.62 1591.23 1932.59 1484.12 2074.4C1430.56 2145.3 1374.64 2199.4 1319.53 2232.51C1264.43 2265.63 1210.19 2277.74 1159.94 2264.75C1109.69 2251.76 1068.11 2214.88 1035.95 2159.22C1003.8 2103.55 981.095 2029.13 968.603 1941.15C943.62 1765.2 959.497 1535.1 1022.18 1292.59C1084.86 1050.08 1182.47 841.117 1289.58 699.305C1343.14 628.399 1399.07 574.302 1454.17 541.189C1509.27 508.077 1563.51 495.967 1613.76 508.955C1664.01 521.942 1705.59 558.821 1737.75 614.486C1769.9 670.153 1792.61 744.572 1805.1 832.551C1830.08 1008.51 1814.2 1238.6 1751.52 1481.11Z" stroke="#2E2E2E"/>
<path d="M1749.82 1487.46C1682.92 1728.84 1581.68 1936.07 1472.1 2075.99C1417.31 2145.95 1360.46 2199.06 1304.79 2231.21C1249.12 2263.35 1194.67 2274.52 1144.65 2260.65C1094.64 2246.79 1053.71 2209.19 1022.53 2152.97C991.349 2096.76 969.948 2021.95 958.993 1933.77C937.084 1757.4 956.975 1527.62 1023.88 1286.24C1090.79 1044.86 1192.02 837.632 1301.6 697.712C1356.39 627.751 1413.24 574.638 1468.92 542.492C1524.59 510.347 1579.04 499.185 1629.05 513.048C1679.06 526.91 1720 564.51 1751.17 620.727C1782.35 676.946 1803.75 751.75 1814.71 839.934C1836.62 1016.3 1816.73 1246.08 1749.82 1487.46Z" stroke="#2E2E2E"/>
<path d="M1748.01 1493.78C1676.9 1733.95 1572.06 1939.39 1460.06 2077.37C1404.06 2146.37 1346.29 2198.48 1290.06 2229.65C1233.84 2260.82 1179.2 2271.03 1129.44 2256.29C1079.68 2241.56 1039.4 2203.25 1009.21 2146.5C979.02 2089.74 958.927 2014.58 949.513 1926.22C930.686 1749.5 954.584 1520.1 1025.69 1279.92C1096.8 1039.75 1201.64 834.316 1313.64 696.329C1369.64 627.335 1427.42 575.222 1483.64 544.053C1539.86 512.884 1594.5 502.674 1644.26 517.408C1694.03 532.141 1734.3 570.449 1764.49 627.202C1794.68 683.957 1814.78 759.123 1824.19 847.485C1843.02 1024.21 1819.12 1253.6 1748.01 1493.78Z" stroke="#2E2E2E"/>
<path d="M1746.09 1500.06C1670.8 1738.96 1562.39 1942.53 1448 2078.55C1390.8 2146.55 1332.13 2197.65 1275.37 2227.83C1218.61 2258.01 1163.8 2267.27 1114.3 2251.67C1064.81 2236.07 1025.21 2197.06 996.012 2139.79C966.814 2082.52 948.037 2007.01 940.166 1918.5C924.426 1741.48 952.324 1512.54 1027.61 1273.64C1102.9 1034.74 1211.31 831.168 1325.7 695.157C1382.9 627.15 1441.57 576.054 1498.33 545.871C1555.09 515.688 1609.9 506.433 1659.4 522.033C1708.9 537.633 1748.49 576.638 1777.69 633.909C1806.89 691.182 1825.66 766.687 1833.54 855.2C1849.28 1032.22 1821.38 1261.17 1746.09 1500.06Z" stroke="#2E2E2E"/>
<path d="M1744.06 1506.32C1664.61 1743.86 1552.67 1945.51 1435.92 2079.51C1377.54 2146.5 1317.99 2196.57 1260.71 2225.76C1203.43 2254.95 1148.47 2263.24 1099.25 2246.78C1050.03 2230.32 1011.12 2190.63 982.931 2132.86C954.737 2075.08 937.28 1999.26 930.956 1910.63C918.307 1733.36 950.197 1504.93 1029.64 1267.39C1109.09 1029.84 1221.03 828.189 1337.78 694.195C1396.16 627.197 1455.72 577.133 1512.99 547.944C1570.27 518.756 1625.23 510.46 1674.45 526.921C1723.67 543.382 1762.58 583.072 1790.77 640.844C1818.96 698.618 1836.42 774.44 1842.75 863.076C1855.39 1040.35 1823.5 1268.77 1744.06 1506.32Z" stroke="#2E2E2E"/>
<path d="M1741.92 1512.53C1658.34 1748.66 1542.89 1948.32 1423.82 2080.26C1364.29 2146.23 1303.86 2195.25 1246.08 2223.43C1188.31 2251.61 1133.21 2258.95 1084.29 2241.63C1035.36 2224.31 997.153 2183.95 969.972 2125.7C942.791 2067.44 926.659 1991.32 921.883 1902.59C912.33 1725.13 948.201 1497.3 1031.78 1261.17C1115.36 1025.05 1230.81 825.381 1349.88 693.445C1409.41 627.476 1469.84 578.459 1527.62 550.275C1585.39 522.091 1640.49 514.755 1689.41 532.073C1738.34 549.391 1776.55 589.753 1803.73 648.009C1830.91 706.266 1847.04 782.381 1851.82 871.114C1861.37 1048.58 1825.5 1276.41 1741.92 1512.53Z" stroke="#2E2E2E"/>
<path d="M1739.67 1518.71C1651.98 1753.34 1533.07 1950.96 1411.72 2080.8C1351.04 2145.72 1289.77 2193.67 1231.51 2220.84C1173.25 2248.02 1118.03 2254.39 1069.42 2236.22C1020.8 2218.05 983.302 2177.03 957.142 2118.31C930.982 2059.58 916.181 1983.2 912.954 1894.4C906.5 1716.79 946.342 1489.62 1034.03 1254.99C1121.72 1020.36 1240.63 822.743 1361.99 692.905C1422.66 627.985 1483.93 580.03 1542.2 552.858C1600.45 525.687 1655.67 519.313 1704.28 537.482C1752.9 555.651 1790.4 596.675 1816.56 655.396C1842.72 714.119 1857.52 790.503 1860.75 879.306C1867.2 1056.91 1827.36 1284.08 1739.67 1518.71Z" stroke="#2E2E2E"/>
<path d="M1737.32 1524.85C1645.55 1757.91 1523.2 1953.43 1399.6 2081.13C1337.8 2144.98 1275.7 2191.86 1216.97 2218.01C1158.25 2244.16 1102.93 2249.57 1054.64 2230.55C1006.35 2211.54 969.572 2169.86 944.441 2110.7C919.31 2051.53 905.845 1974.89 904.168 1886.05C900.814 1708.36 944.615 1481.92 1036.38 1248.86C1128.15 1015.79 1250.5 820.277 1374.1 692.577C1435.9 628.726 1498 581.847 1556.73 555.697C1615.45 529.547 1670.77 524.138 1719.06 543.152C1767.35 562.167 1804.13 603.839 1829.26 663.007C1854.39 722.178 1867.86 798.809 1869.53 887.655C1872.89 1065.34 1829.09 1291.78 1737.32 1524.85Z" stroke="#2E2E2E"/>
<path d="M1734.86 1530.94C1639.03 1762.37 1513.29 1955.72 1387.48 2081.24C1324.58 2144.01 1261.67 2189.79 1202.5 2214.92C1143.32 2240.04 1087.92 2244.48 1039.97 2224.62C992.016 2204.77 955.971 2162.46 931.876 2102.86C907.781 2043.26 895.655 1966.41 895.529 1877.55C895.278 1699.83 943.023 1474.19 1038.85 1242.76C1134.67 1011.33 1260.41 817.983 1386.22 692.46C1449.13 629.697 1512.03 583.909 1571.21 558.787C1630.38 533.666 1685.78 529.223 1733.73 549.078C1781.68 568.933 1817.73 611.24 1841.82 670.838C1865.92 730.438 1878.05 807.293 1878.17 896.154C1878.42 1073.87 1830.68 1299.52 1734.86 1530.94Z" stroke="#2E2E2E"/>
<path d="M1732.29 1537C1632.44 1766.71 1503.35 1957.84 1375.36 2081.15C1311.37 2142.8 1247.68 2187.49 1188.07 2211.57C1128.47 2235.66 1073 2239.13 1025.4 2218.44C977.801 2197.76 942.5 2154.83 919.449 2094.82C896.398 2034.8 885.615 1957.75 887.04 1868.9C889.89 1691.2 941.566 1466.43 1041.41 1236.71C1141.26 1006.99 1270.36 815.864 1398.34 692.555C1462.33 630.9 1526.03 586.217 1585.63 562.131C1645.23 538.047 1700.7 534.572 1748.3 555.26C1795.9 575.949 1831.2 618.879 1854.25 678.888C1877.3 738.899 1888.09 815.954 1886.66 904.804C1883.81 1082.5 1832.13 1307.28 1732.29 1537Z" stroke="#2E2E2E"/>
<path d="M1729.61 1543C1625.77 1770.94 1493.36 1959.79 1363.25 2080.84C1298.19 2141.37 1233.72 2184.94 1173.71 2207.98C1113.69 2231.02 1058.17 2233.52 1010.94 2212.01C963.711 2190.49 929.164 2146.95 907.164 2086.55C885.164 2026.15 875.728 1948.91 878.703 1860.1C884.654 1682.48 940.245 1458.64 1044.09 1230.7C1147.93 1002.76 1280.34 813.918 1410.45 692.861C1475.51 632.332 1539.98 588.768 1599.99 565.726C1660.01 542.686 1715.53 540.179 1762.76 561.695C1809.99 583.211 1844.54 626.75 1866.54 687.153C1888.54 747.558 1897.97 824.789 1895 913.6C1889.05 1091.22 1833.46 1315.06 1729.61 1543Z" stroke="#2E2E2E"/>
<path d="M1726.84 1548.96C1619.03 1775.05 1483.35 1961.56 1351.14 2080.32C1285.03 2139.71 1219.82 2182.14 1159.41 2204.13C1099 2226.12 1043.44 2227.66 996.598 2205.32C949.751 2182.99 915.969 2138.85 895.026 2078.07C874.083 2017.29 865.997 1939.91 870.521 1851.16C879.571 1673.67 939.061 1450.84 1046.86 1224.74C1154.67 998.649 1290.35 812.146 1422.56 693.378C1488.67 633.994 1553.88 591.561 1614.29 569.571C1674.7 547.581 1730.26 546.044 1777.1 568.381C1823.95 590.718 1857.73 634.854 1878.67 695.631C1899.62 756.41 1907.7 833.794 1903.18 922.541C1894.13 1100.03 1834.64 1322.86 1726.84 1548.96Z" stroke="#2E2E2E"/>
<path d="M1723.96 1554.87C1612.22 1779.05 1473.3 1963.15 1339.04 2079.6C1271.91 2137.82 1205.96 2179.11 1145.18 2200.04C1084.4 2220.97 1028.82 2221.54 982.373 2198.39C935.923 2175.24 902.916 2130.52 883.038 2069.38C863.159 2008.25 856.424 1930.73 862.497 1842.08C874.643 1664.78 938.012 1443.01 1049.75 1218.83C1161.48 994.656 1300.4 810.549 1434.66 694.107C1501.79 635.885 1567.74 594.597 1628.52 573.664C1689.3 552.732 1744.88 552.165 1791.33 575.316C1837.78 598.467 1870.78 643.186 1890.66 704.319C1910.54 765.455 1917.28 842.968 1911.2 931.622C1899.06 1108.93 1835.69 1330.69 1723.96 1554.87Z" stroke="#2E2E2E"/>
<path d="M1720.97 1560.73C1605.34 1782.92 1463.23 1964.58 1326.96 2078.66C1258.82 2135.7 1192.16 2175.83 1131.03 2195.7C1069.89 2215.57 1014.31 2215.16 968.271 2191.2C922.232 2167.25 890.011 2121.96 871.202 2060.49C852.393 1999.01 847.012 1921.39 854.631 1832.86C869.87 1655.79 937.1 1435.17 1052.73 1212.98C1168.36 990.783 1310.47 809.128 1446.74 695.047C1514.88 638.006 1581.54 597.875 1642.67 578.007C1703.81 558.138 1759.39 558.541 1805.43 582.499C1851.47 606.458 1883.69 651.746 1902.5 713.217C1921.31 774.69 1926.69 852.309 1919.07 940.843C1903.83 1117.91 1836.6 1338.53 1720.97 1560.73Z" stroke="#2E2E2E"/>
<path d="M1717.89 1566.53C1598.4 1786.67 1453.14 1965.82 1314.89 2077.51C1245.77 2133.35 1178.43 2172.31 1116.95 2191.11C1055.47 2209.91 999.911 2208.53 954.297 2183.78C908.683 2159.02 877.258 2113.17 859.525 2051.38C841.792 1989.59 837.766 1911.89 846.929 1823.5C865.255 1646.73 936.326 1427.31 1055.81 1207.17C1175.3 987.029 1320.56 807.883 1458.81 696.198C1527.93 640.354 1595.28 601.393 1656.75 582.594C1718.23 563.796 1773.79 565.168 1819.4 589.927C1865.02 614.685 1896.44 660.528 1914.18 722.318C1931.91 784.11 1935.94 861.811 1926.77 950.199C1908.45 1126.97 1837.38 1346.39 1717.89 1566.53Z" stroke="#2E2E2E"/>
<path d="M1714.7 1572.28C1591.39 1790.3 1443.02 1966.89 1302.85 2076.14C1232.77 2130.77 1164.75 2168.55 1102.95 2186.28C1041.16 2204 985.63 2201.66 940.455 2176.1C895.281 2150.55 864.66 2104.17 848.008 2042.08C831.356 1979.99 828.687 1902.23 839.391 1814.01C860.8 1637.59 935.689 1419.45 1059 1201.42C1182.31 983.398 1330.68 806.813 1470.85 697.558C1540.94 642.929 1608.95 605.149 1670.75 587.426C1732.54 569.704 1788.07 572.046 1833.25 597.596C1878.42 623.147 1909.04 669.532 1925.69 731.622C1942.35 793.714 1945.02 871.474 1934.31 959.688C1912.9 1136.11 1838.01 1354.26 1714.7 1572.28Z" stroke="#2E2E2E"/>
<path d="M1711.41 1577.97C1584.32 1793.81 1432.89 1967.78 1290.84 2074.57C1219.81 2127.97 1151.14 2164.56 1089.05 2181.2C1026.95 2197.84 971.471 2194.53 926.749 2168.19C882.027 2141.86 852.22 2094.95 836.654 2032.58C821.088 1970.2 819.777 1892.41 832.019 1804.39C856.504 1628.37 935.188 1411.57 1062.29 1195.73C1189.39 979.89 1340.81 805.922 1482.87 699.129C1553.9 645.732 1622.56 609.145 1684.66 592.503C1746.75 575.862 1802.23 579.173 1846.95 605.508C1891.67 631.843 1921.48 678.755 1937.05 741.126C1952.61 803.5 1953.92 881.294 1941.68 969.308C1917.2 1145.33 1838.51 1362.14 1711.41 1577.97Z" stroke="#2E2E2E"/>
<path d="M1708.03 1583.61C1577.18 1797.2 1422.75 1968.5 1278.85 2072.79C1206.9 2124.94 1137.6 2160.33 1075.23 2175.88C1012.85 2191.44 957.438 2187.16 913.182 2160.05C868.927 2132.93 839.943 2085.51 825.468 2022.88C810.993 1960.24 811.04 1882.43 824.816 1794.65C852.369 1619.08 934.825 1403.68 1065.67 1190.09C1196.52 976.506 1350.96 805.207 1494.85 700.91C1566.8 648.761 1636.1 613.378 1698.47 597.822C1760.85 582.267 1816.26 586.546 1860.52 613.657C1904.77 640.768 1933.76 688.194 1948.23 750.827C1962.71 813.463 1962.66 891.268 1948.88 979.055C1921.33 1154.63 1838.88 1370.02 1708.03 1583.61Z" stroke="#2E2E2E"/>
<path d="M1704.55 1589.18C1569.99 1800.46 1412.59 1969.03 1266.89 2070.8C1194.04 2121.69 1124.14 2155.86 1061.5 2170.32C998.869 2184.79 943.536 2179.54 899.761 2151.66C855.985 2123.78 827.834 2075.86 814.454 2012.98C801.075 1950.1 802.479 1872.31 817.785 1784.78C848.398 1609.71 934.601 1395.79 1069.16 1184.52C1203.71 973.246 1361.11 804.668 1506.81 702.899C1579.66 652.013 1649.56 617.845 1712.2 603.38C1774.83 588.916 1830.17 594.161 1873.94 622.041C1917.72 649.92 1945.87 697.844 1959.25 760.721C1972.63 823.599 1971.22 901.392 1955.92 988.925C1925.3 1163.99 1839.1 1377.91 1704.55 1589.18Z" stroke="#2E2E2E"/>
<path d="M1700.97 1594.7C1562.75 1803.59 1402.42 1969.39 1254.97 2068.61C1181.25 2118.21 1110.76 2151.16 1047.88 2164.52C985.001 2177.89 929.769 2171.68 886.487 2143.04C843.204 2114.4 815.893 2066 803.614 2002.9C791.333 1939.79 794.095 1862.04 810.927 1774.78C844.59 1600.28 934.513 1387.89 1072.73 1179C1210.95 970.113 1371.28 804.309 1518.73 705.097C1592.45 655.491 1662.94 622.547 1725.82 609.178C1788.7 595.809 1843.93 602.019 1887.21 630.659C1930.5 659.298 1957.81 707.706 1970.09 770.806C1982.37 833.909 1979.61 911.665 1962.77 998.918C1929.11 1173.42 1839.19 1385.81 1700.97 1594.7Z" stroke="#2E2E2E"/>
<path d="M1697.29 1600.15C1555.45 1806.59 1392.26 1969.58 1243.1 2066.2C1168.52 2114.51 1097.46 2146.22 1034.36 2158.49C971.258 2170.76 916.142 2163.59 873.366 2134.2C830.59 2104.81 804.128 2055.93 792.952 1992.62C781.774 1929.32 785.893 1851.62 804.245 1764.67C840.949 1590.78 934.565 1380 1076.41 1173.55C1218.26 967.106 1381.45 804.125 1530.61 707.502C1605.19 659.19 1676.24 627.481 1739.34 615.212C1802.44 602.942 1857.56 610.115 1900.34 639.506C1943.11 668.896 1969.57 717.773 1980.75 781.078C1991.93 844.386 1987.81 922.082 1969.46 1009.03C1932.75 1182.92 1839.14 1393.7 1697.29 1600.15Z" stroke="#2E2E2E"/>
<path d="M1693.52 1605.53C1548.1 1809.47 1382.09 1969.58 1231.26 2063.59C1155.85 2110.59 1084.26 2141.05 1020.95 2152.22C957.639 2163.39 902.657 2155.25 860.401 2125.12C818.144 2094.99 792.54 2045.66 782.469 1982.17C772.399 1918.67 777.872 1841.06 797.739 1754.45C837.472 1581.23 934.753 1372.11 1080.18 1168.17C1225.61 964.228 1391.62 804.12 1542.44 710.115C1617.85 663.111 1689.45 632.648 1752.76 621.481C1816.06 610.315 1871.04 618.449 1913.3 648.582C1955.56 678.714 1981.16 728.046 1991.23 791.536C2001.3 855.029 1995.83 932.642 1975.96 1019.25C1936.23 1192.48 1838.95 1401.59 1693.52 1605.53Z" stroke="#2E2E2E"/>
<path d="M1689.66 1610.85C1540.69 1812.22 1371.92 1969.41 1219.47 2060.77C1143.25 2106.45 1071.14 2135.66 1007.64 2145.72C944.152 2155.78 889.32 2146.69 847.596 2115.82C805.872 2084.96 781.132 2035.19 772.171 1971.53C763.21 1907.87 770.038 1830.36 791.413 1744.11C834.163 1571.61 935.078 1364.22 1084.04 1162.85C1233.01 961.479 1401.79 804.293 1554.23 712.934C1630.45 667.254 1702.56 638.045 1766.06 627.985C1829.55 617.925 1884.38 627.017 1926.1 657.883C1967.83 688.748 1992.57 738.519 2001.53 802.175C2010.49 865.834 2003.66 943.34 1982.29 1029.59C1939.54 1202.09 1838.62 1409.48 1689.66 1610.85Z" stroke="#2E2E2E"/>
<path d="M1685.7 1616.1C1533.25 1814.85 1361.75 1969.06 1207.74 2057.75C1130.73 2102.09 1058.12 2130.04 994.457 2138.99C930.799 2147.94 876.135 2137.89 834.955 2106.3C793.776 2074.71 769.909 2024.52 762.06 1960.71C754.212 1896.91 762.391 1819.53 785.268 1733.67C831.022 1561.94 935.542 1356.34 1088 1157.6C1240.45 958.859 1411.95 804.642 1565.96 715.958C1642.97 671.615 1715.58 643.669 1779.24 634.719C1842.9 625.769 1897.57 635.816 1938.74 667.405C1979.92 698.994 2003.79 749.189 2011.64 812.992C2019.49 876.798 2011.31 954.172 1988.43 1040.04C1942.68 1211.77 1838.16 1417.36 1685.7 1616.1Z" stroke="#2E2E2E"/>
<path d="M1681.66 1621.28C1525.76 1817.33 1351.59 1968.53 1196.06 2054.52C1118.29 2097.51 1045.2 2124.18 981.392 2132.02C917.587 2139.86 863.106 2128.86 822.484 2096.56C781.863 2064.25 758.875 2013.65 752.141 1949.72C745.408 1885.79 754.936 1808.57 779.308 1723.11C828.052 1552.21 936.144 1348.47 1092.04 1152.42C1247.95 956.368 1422.11 805.168 1577.64 719.185C1655.41 676.193 1728.5 649.518 1792.31 641.68C1856.11 633.842 1910.6 644.843 1951.22 677.146C1991.84 709.448 2014.83 760.052 2021.56 823.983C2028.29 887.916 2018.77 965.135 1994.39 1050.59C1945.65 1221.49 1837.56 1425.24 1681.66 1621.28Z" stroke="#2E2E2E"/>
<path d="M1677.52 1626.39C1518.22 1819.69 1341.45 1967.83 1184.43 2051.09C1105.93 2092.71 1032.38 2118.11 968.449 2124.83C904.517 2131.55 850.236 2119.61 810.185 2086.6C770.133 2053.59 748.032 2002.59 742.415 1938.56C736.798 1874.52 747.672 1797.47 773.532 1712.46C825.252 1542.43 936.883 1340.61 1096.18 1147.31C1255.48 954.009 1432.25 805.871 1589.27 722.616C1667.78 680.988 1741.32 655.593 1805.25 648.869C1869.19 642.146 1923.47 654.096 1963.52 687.103C2003.57 720.109 2025.67 771.107 2031.29 835.145C2036.9 899.186 2026.03 976.228 2000.17 1061.24C1948.45 1231.27 1836.82 1433.09 1677.52 1626.39Z" stroke="#2E2E2E"/>
<path d="M1673.3 1631.43C1510.65 1821.92 1331.32 1966.95 1172.87 2047.45C1093.65 2087.7 1019.67 2111.81 955.633 2117.42C891.594 2123.02 837.53 2110.13 798.06 2076.43C758.591 2042.73 737.383 1991.35 732.885 1927.22C728.386 1863.1 740.604 1786.26 767.943 1701.7C822.623 1532.6 937.759 1332.76 1100.41 1142.27C1263.05 951.782 1442.39 806.752 1600.83 726.25C1680.05 685.998 1754.03 661.89 1818.07 656.284C1882.11 650.678 1936.17 663.573 1975.64 697.273C2015.11 730.974 2036.32 782.35 2040.82 846.476C2045.32 910.605 2033.1 987.445 2005.76 1072C1951.08 1241.1 1835.94 1440.94 1673.3 1631.43Z" stroke="#2E2E2E"/>
<path d="M1668.98 1636.39C1503.04 1824.01 1321.2 1965.89 1161.38 2043.62C1081.46 2082.48 1007.08 2105.29 942.948 2109.78C878.821 2114.27 824.99 2100.43 786.115 2066.05C747.24 2031.66 726.932 1979.92 723.553 1915.73C720.175 1851.53 733.731 1774.92 762.542 1690.86C820.164 1522.74 938.771 1324.93 1104.72 1137.31C1270.67 949.688 1452.5 807.81 1612.33 730.085C1692.24 691.222 1766.62 668.409 1830.75 663.921C1894.88 659.433 1948.71 673.27 1987.59 707.654C2026.46 742.039 2046.77 793.777 2050.15 857.972C2053.53 922.169 2039.97 998.785 2011.16 1082.85C1953.54 1250.97 1834.93 1448.77 1668.98 1636.39Z" stroke="#2E2E2E"/>
</svg>
