<?xml version="1.0" encoding="UTF-8" standalone="no"?>
<!DOCTYPE svg PUBLIC "-//W3C//DTD SVG 1.1//EN" "http://www.w3.org/Graphics/SVG/1.1/DTD/svg11.dtd">
<svg xmlns="http://www.w3.org/2000/svg" version="1.1" viewBox="0.00 0.00 64.00 64.00">
<g stroke-width="2.00" fill="none" stroke-linecap="butt">
<path stroke="#b296bc" vector-effect="non-scaling-stroke" d="
  M 30.67 0.00
  Q 30.75 0.52 30.24 0.60
  Q 13.73 3.26 10.09 19.79"
/>
<path stroke="#b296bc" vector-effect="non-scaling-stroke" d="
  M 53.07 5.76
  Q 58.51 11.46 59.80 19.07"
/>
<path stroke="#b296bc" vector-effect="non-scaling-stroke" d="
  M 59.86 26.29
  Q 59.31 27.50 58.91 31.68
  Q 58.66 34.31 54.57 44.23
  Q 53.83 46.02 54.35 48.94
  Q 54.73 51.02 54.84 53.58
  Q 54.97 56.37 55.68 58.93"
/>
<path stroke="#b296bc" vector-effect="non-scaling-stroke" d="
  M 23.20 60.33
  Q 23.98 58.87 23.93 57.36
  Q 23.92 56.85 23.46 56.64
  Q 22.47 56.18 21.39 56.36
  Q 21.14 56.40 21.10 56.65
  Q 21.07 56.77 21.04 56.91"
/>
<path stroke="#b296bc" vector-effect="non-scaling-stroke" d="
  M 20.04 57.01
  L 13.09 57.65"
/>
<path stroke="#b296bc" vector-effect="non-scaling-stroke" d="
  M 13.01 57.23
  L 10.01 54.13"
/>
<path stroke="#b296bc" vector-effect="non-scaling-stroke" d="
  M 9.89 44.04
  Q 10.07 42.86 9.13 42.39
  Q 7.51 41.60 5.88 42.58"
/>
<path stroke="#9f92b8" vector-effect="non-scaling-stroke" d="
  M 6.98 31.16
  Q 9.46 27.26 9.79 22.55"
/>
<path stroke="#c5afc0" vector-effect="non-scaling-stroke" d="
  M 17.15 9.41
  Q 13.05 14.29 12.21 20.46
  Q 11.68 24.30 11.03 26.22
  Q 8.80 32.82 6.70 39.37
  Q 6.47 40.08 7.22 40.17
  L 9.38 40.42
  A 2.95 2.94 3.2 0 1 11.99 43.33
  L 12.03 51.94
  Q 12.04 55.79 15.87 55.38
  L 29.14 53.96
  A 0.85 0.83 76.5 0 1 30.01 54.51
  Q 30.67 56.33 26.91 56.22
  A 1.12 1.11 4.2 0 0 25.77 57.20
  L 25.34 60.71
  Q 25.19 61.95 26.44 61.95
  L 52.95 61.93
  A 0.76 0.75 87.6 0 0 53.70 61.11
  Q 53.22 55.20 52.37 48.99
  C 51.76 44.58 53.28 42.12 54.79 38.37
  C 58.56 29.04 60.33 16.14 52.16 8.15"
/>
<path stroke="#c7b3c7" vector-effect="non-scaling-stroke" d="
  M 52.16 8.15
  Q 46.69 3.13 38.75 2.29
  Q 25.77 0.91 17.15 9.41"
/>
<path stroke="#fcf2e7" vector-effect="non-scaling-stroke" d="
  M 52.16 8.15
  Q 49.46 10.27 46.12 10.44"
/>
<path stroke="#c7b3c7" vector-effect="non-scaling-stroke" d="
  M 46.12 10.44
  Q 46.87 9.41 46.60 8.58
  Q 46.43 8.05 45.87 8.02
  Q 44.81 7.95 44.12 9.59"
/>
<path stroke="#fcf2e7" vector-effect="non-scaling-stroke" d="
  M 44.12 9.59
  L 41.16 8.51"
/>
<path stroke="#c7b3c7" vector-effect="non-scaling-stroke" d="
  M 41.16 8.51
  Q 41.66 7.38 41.47 6.52
  A 0.94 0.93 -34.6 0 0 39.77 6.21
  Q 39.23 7.04 39.05 8.22"
/>
<path stroke="#fcf2e7" vector-effect="non-scaling-stroke" d="
  M 39.05 8.22
  L 36.05 8.05"
/>
<path stroke="#c7b3c7" vector-effect="non-scaling-stroke" d="
  M 36.05 8.05
  L 35.99 6.00
  Q 35.96 5.15 35.11 5.13
  L 34.77 5.12
  Q 34.09 5.11 34.07 5.79
  L 34.00 8.01"
/>
<path stroke="#fcf2e7" vector-effect="non-scaling-stroke" d="
  M 34.00 8.01
  L 30.93 8.06"
/>
<path stroke="#c7b3c7" vector-effect="non-scaling-stroke" d="
  M 30.93 8.06
  Q 30.74 6.74 30.07 6.02
  A 0.92 0.91 -62.9 0 0 28.49 6.53
  Q 28.41 7.16 28.61 7.63"
/>
<path stroke="#fcf2e7" vector-effect="non-scaling-stroke" d="
  M 28.61 7.63
  L 25.92 9.62"
/>
<path stroke="#c7b3c7" vector-effect="non-scaling-stroke" d="
  M 25.92 9.62
  Q 25.07 7.61 23.79 8.10
  Q 23.03 8.40 23.36 9.43"
/>
<path stroke="#fcf2e7" vector-effect="non-scaling-stroke" d="
  M 23.36 9.43
  Q 20.30 10.69 17.15 9.41"
/>
<path stroke="#c5afc0" vector-effect="non-scaling-stroke" d="
  M 41.16 8.51
  Q 40.95 9.22 40.56 9.53
  A 0.92 0.92 0.0 0 1 39.26 9.37
  Q 38.92 8.92 39.05 8.22"
/>
<path stroke="#c5afc0" vector-effect="non-scaling-stroke" d="
  M 30.93 8.06
  Q 31.28 9.51 30.24 9.71
  Q 28.91 9.96 28.61 7.63"
/>
<path stroke="#c5afc0" vector-effect="non-scaling-stroke" d="
  M 44.12 9.59
  Q 43.59 10.55 43.90 11.14
  Q 44.26 11.81 45.05 11.55
  Q 45.72 11.32 46.12 10.44"
/>
<path stroke="#c5afc0" vector-effect="non-scaling-stroke" d="
  M 23.36 9.43
  L 24.45 11.18
  A 0.98 0.98 0.0 0 0 26.20 10.99
  Q 26.44 10.33 25.92 9.62"
/>
<path stroke="#c5afc0" vector-effect="non-scaling-stroke" d="
  M 36.05 8.05
  Q 35.98 8.97 34.98 8.92
  Q 34.04 8.87 34.00 8.01"
/>
<path stroke="#c5afc0" vector-effect="non-scaling-stroke" d="
  M 29.08 24.79
  L 26.72 22.41
  Q 26.01 21.70 25.35 22.46
  L 25.13 22.71
  A 0.86 0.85 42.2 0 0 25.19 23.88
  L 27.60 26.22
  Q 28.08 26.68 27.78 27.27
  Q 26.90 29.05 26.70 31.00
  Q 26.64 31.52 26.13 31.61
  L 22.06 32.31
  A 0.92 0.90 -27.5 0 1 21.27 32.07
  C 18.47 29.34 14.51 32.58 16.45 35.59
  C 18.12 38.17 20.77 37.03 22.05 34.77
  Q 22.28 34.35 22.76 34.26
  L 26.53 33.58
  Q 27.15 33.47 27.42 34.03
  Q 28.94 37.08 32.34 38.07
  Q 32.97 38.25 32.96 38.91
  L 32.93 41.44
  Q 32.92 42.35 33.83 42.47
  L 34.25 42.52
  A 0.60 0.60 0.0 0 0 34.93 41.93
  L 34.99 38.73
  Q 35.00 38.17 35.55 38.06
  Q 37.31 37.69 38.72 36.49
  Q 39.20 36.07 39.71 36.46
  L 41.73 38.01
  Q 42.33 38.48 42.13 39.21
  Q 41.85 40.24 42.18 41.24
  C 43.83 46.26 51.35 43.74 49.83 38.98
  Q 48.53 34.91 43.96 36.49
  Q 43.47 36.66 43.04 36.35
  L 40.99 34.89
  Q 40.47 34.53 40.67 33.93
  Q 41.87 30.36 40.26 27.43
  A 0.79 0.78 54.8 0 1 40.42 26.48
  L 43.58 23.57
  Q 44.04 23.15 44.60 23.40
  Q 48.60 25.14 51.09 21.89
  C 53.97 18.13 50.00 12.83 45.56 14.25
  C 42.92 15.10 40.98 18.20 42.41 21.06
  Q 42.68 21.59 42.24 21.99
  L 39.09 24.88
  Q 38.63 25.31 38.08 24.99
  Q 34.05 22.60 30.08 24.92
  Q 29.53 25.24 29.08 24.79"
/>
<path stroke="#c5afc0" vector-effect="non-scaling-stroke" d="
  M 26.01 19.01
  A 4.01 4.01 0.0 0 0 22.00 15.00
  A 4.01 4.01 0.0 0 0 17.99 19.01
  A 4.01 4.01 0.0 0 0 22.00 23.02
  A 4.01 4.01 0.0 0 0 26.01 19.01"
/>
<path stroke="#c5afc0" vector-effect="non-scaling-stroke" d="
  M 37.52 48.00
  A 3.53 3.53 0.0 0 0 33.99 44.47
  A 3.53 3.53 0.0 0 0 30.46 48.00
  A 3.53 3.53 0.0 0 0 33.99 51.53
  A 3.53 3.53 0.0 0 0 37.52 48.00"
/>
<path stroke="#819da7" vector-effect="non-scaling-stroke" d="
  M 49.94 18.98
  A 2.96 2.96 0.0 0 0 46.98 16.02
  A 2.96 2.96 0.0 0 0 44.02 18.98
  A 2.96 2.96 0.0 0 0 46.98 21.94
  A 2.96 2.96 0.0 0 0 49.94 18.98"
/>
<path stroke="#8a9dcc" vector-effect="non-scaling-stroke" d="
  M 39.09 31.01
  A 5.09 5.09 0.0 0 0 34.00 25.92
  A 5.09 5.09 0.0 0 0 28.91 31.01
  A 5.09 5.09 0.0 0 0 34.00 36.10
  A 5.09 5.09 0.0 0 0 39.09 31.01"
/>
<path stroke="#c7b3c7" vector-effect="non-scaling-stroke" d="
  M 19.94 33.98
  A 0.98 0.98 0.0 0 0 18.96 33.00
  A 0.98 0.98 0.0 0 0 17.98 33.98
  A 0.98 0.98 0.0 0 0 18.96 34.96
  A 0.98 0.98 0.0 0 0 19.94 33.98"
/>
<path stroke="#be749c" vector-effect="non-scaling-stroke" d="
  M 47.94 40.02
  A 1.94 1.94 0.0 0 0 46.00 38.08
  A 1.94 1.94 0.0 0 0 44.06 40.02
  A 1.94 1.94 0.0 0 0 46.00 41.96
  A 1.94 1.94 0.0 0 0 47.94 40.02"
/>
<path stroke="#9f92b8" vector-effect="non-scaling-stroke" d="
  M 23.97 19.01
  A 1.95 1.95 0.0 0 0 22.02 17.06
  A 1.95 1.95 0.0 0 0 20.07 19.01
  A 1.95 1.95 0.0 0 0 22.02 20.96
  A 1.95 1.95 0.0 0 0 23.97 19.01"
/>
<path stroke="#9f92b8" vector-effect="non-scaling-stroke" d="
  M 33.03 48.92
  Q 32.95 49.28 33.03 49.69
  Q 33.13 50.28 33.71 50.13
  Q 34.72 49.88 35.51 49.12
  A 1.66 1.65 37.6 0 0 35.16 46.48
  Q 33.08 45.32 32.06 47.25
  Q 31.76 47.81 31.95 48.30
  Q 32.22 48.99 33.03 48.92"
/>
</g>
<path fill="#d4bdd7" d="
  M 30.67 0.00
  Q 30.75 0.52 30.24 0.60
  Q 13.73 3.26 10.09 19.79
  Q 9.69 18.87 9.97 17.75
  Q 13.63 3.44 28.42 0.00
  L 30.67 0.00
  Z"
/>
<path fill="#8f6fa0" d="
  M 41.68 0.00
  Q 46.39 1.35 48.94 2.56
  Q 51.39 3.71 53.07 5.76
  Q 58.51 11.46 59.80 19.07
  Q 60.42 22.63 59.86 26.29
  Q 59.31 27.50 58.91 31.68
  Q 58.66 34.31 54.57 44.23
  Q 53.83 46.02 54.35 48.94
  Q 54.73 51.02 54.84 53.58
  Q 54.97 56.37 55.68 58.93
  Q 56.87 61.78 54.75 64.00
  L 24.38 64.00
  Q 22.29 62.25 23.20 60.33
  Q 23.98 58.87 23.93 57.36
  Q 23.92 56.85 23.46 56.64
  Q 22.47 56.18 21.39 56.36
  Q 21.14 56.40 21.10 56.65
  Q 21.07 56.77 21.04 56.91
  L 20.04 57.01
  L 13.09 57.65
  Q 12.78 57.20 13.01 57.23
  L 10.01 54.13
  L 9.89 44.04
  Q 10.07 42.86 9.13 42.39
  Q 7.51 41.60 5.88 42.58
  Q 5.91 41.78 4.93 41.83
  A 1.12 1.12 0.0 0 1 3.81 40.35
  L 6.98 31.16
  Q 9.46 27.26 9.79 22.55
  Q 9.68 21.06 10.09 19.79
  Q 13.73 3.26 30.24 0.60
  Q 30.75 0.52 30.67 0.00
  L 41.68 0.00
  Z
  M 17.15 9.41
  Q 13.05 14.29 12.21 20.46
  Q 11.68 24.30 11.03 26.22
  Q 8.80 32.82 6.70 39.37
  Q 6.47 40.08 7.22 40.17
  L 9.38 40.42
  A 2.95 2.94 3.2 0 1 11.99 43.33
  L 12.03 51.94
  Q 12.04 55.79 15.87 55.38
  L 29.14 53.96
  A 0.85 0.83 76.5 0 1 30.01 54.51
  Q 30.67 56.33 26.91 56.22
  A 1.12 1.11 4.2 0 0 25.77 57.20
  L 25.34 60.71
  Q 25.19 61.95 26.44 61.95
  L 52.95 61.93
  A 0.76 0.75 87.6 0 0 53.70 61.11
  Q 53.22 55.20 52.37 48.99
  C 51.76 44.58 53.28 42.12 54.79 38.37
  C 58.56 29.04 60.33 16.14 52.16 8.15
  Q 46.69 3.13 38.75 2.29
  Q 25.77 0.91 17.15 9.41
  Z"
/>
<path fill="#fef6ee" d="
  M 52.16 8.15
  Q 49.46 10.27 46.12 10.44
  Q 46.87 9.41 46.60 8.58
  Q 46.43 8.05 45.87 8.02
  Q 44.81 7.95 44.12 9.59
  L 41.16 8.51
  Q 41.66 7.38 41.47 6.52
  A 0.94 0.93 -34.6 0 0 39.77 6.21
  Q 39.23 7.04 39.05 8.22
  L 36.05 8.05
  L 35.99 6.00
  Q 35.96 5.15 35.11 5.13
  L 34.77 5.12
  Q 34.09 5.11 34.07 5.79
  L 34.00 8.01
  L 30.93 8.06
  Q 30.74 6.74 30.07 6.02
  A 0.92 0.91 -62.9 0 0 28.49 6.53
  Q 28.41 7.16 28.61 7.63
  L 25.92 9.62
  Q 25.07 7.61 23.79 8.10
  Q 23.03 8.40 23.36 9.43
  Q 20.30 10.69 17.15 9.41
  Q 25.77 0.91 38.75 2.29
  Q 46.69 3.13 52.16 8.15
  Z"
/>
<path fill="#8f6fa0" d="
  M 36.05 8.05
  Q 35.98 8.97 34.98 8.92
  Q 34.04 8.87 34.00 8.01
  L 34.07 5.79
  Q 34.09 5.11 34.77 5.12
  L 35.11 5.13
  Q 35.96 5.15 35.99 6.00
  L 36.05 8.05
  Z"
/>
<path fill="#8f6fa0" d="
  M 30.93 8.06
  Q 31.28 9.51 30.24 9.71
  Q 28.91 9.96 28.61 7.63
  Q 28.41 7.16 28.49 6.53
  A 0.92 0.91 -62.9 0 1 30.07 6.02
  Q 30.74 6.74 30.93 8.06
  Z"
/>
<path fill="#8f6fa0" d="
  M 41.16 8.51
  Q 40.95 9.22 40.56 9.53
  A 0.92 0.92 0.0 0 1 39.26 9.37
  Q 38.92 8.92 39.05 8.22
  Q 39.23 7.04 39.77 6.21
  A 0.94 0.93 -34.6 0 1 41.47 6.52
  Q 41.66 7.38 41.16 8.51
  Z"
/>
<path fill="#d4bdd7" d="
  M 53.07 5.76
  C 56.89 8.62 60.73 14.04 59.80 19.07
  Q 58.51 11.46 53.07 5.76
  Z"
/>
<path fill="#faeedf" d="
  M 30.93 8.06
  L 34.00 8.01
  Q 34.04 8.87 34.98 8.92
  Q 35.98 8.97 36.05 8.05
  L 39.05 8.22
  Q 38.92 8.92 39.26 9.37
  A 0.92 0.92 0.0 0 0 40.56 9.53
  Q 40.95 9.22 41.16 8.51
  L 44.12 9.59
  Q 43.59 10.55 43.90 11.14
  Q 44.26 11.81 45.05 11.55
  Q 45.72 11.32 46.12 10.44
  Q 49.46 10.27 52.16 8.15
  C 60.33 16.14 58.56 29.04 54.79 38.37
  C 53.28 42.12 51.76 44.58 52.37 48.99
  Q 53.22 55.20 53.70 61.11
  A 0.76 0.75 87.6 0 1 52.95 61.93
  L 26.44 61.95
  Q 25.19 61.95 25.34 60.71
  L 25.77 57.20
  A 1.12 1.11 4.2 0 1 26.91 56.22
  Q 30.67 56.33 30.01 54.51
  A 0.85 0.83 76.5 0 0 29.14 53.96
  L 15.87 55.38
  Q 12.04 55.79 12.03 51.94
  L 11.99 43.33
  A 2.95 2.94 3.2 0 0 9.38 40.42
  L 7.22 40.17
  Q 6.47 40.08 6.70 39.37
  Q 8.80 32.82 11.03 26.22
  Q 11.68 24.30 12.21 20.46
  Q 13.05 14.29 17.15 9.41
  Q 20.30 10.69 23.36 9.43
  L 24.45 11.18
  A 0.98 0.98 0.0 0 0 26.20 10.99
  Q 26.44 10.33 25.92 9.62
  L 28.61 7.63
  Q 28.91 9.96 30.24 9.71
  Q 31.28 9.51 30.93 8.06
  Z
  M 29.08 24.79
  L 26.72 22.41
  Q 26.01 21.70 25.35 22.46
  L 25.13 22.71
  A 0.86 0.85 42.2 0 0 25.19 23.88
  L 27.60 26.22
  Q 28.08 26.68 27.78 27.27
  Q 26.90 29.05 26.70 31.00
  Q 26.64 31.52 26.13 31.61
  L 22.06 32.31
  A 0.92 0.90 -27.5 0 1 21.27 32.07
  C 18.47 29.34 14.51 32.58 16.45 35.59
  C 18.12 38.17 20.77 37.03 22.05 34.77
  Q 22.28 34.35 22.76 34.26
  L 26.53 33.58
  Q 27.15 33.47 27.42 34.03
  Q 28.94 37.08 32.34 38.07
  Q 32.97 38.25 32.96 38.91
  L 32.93 41.44
  Q 32.92 42.35 33.83 42.47
  L 34.25 42.52
  A 0.60 0.60 0.0 0 0 34.93 41.93
  L 34.99 38.73
  Q 35.00 38.17 35.55 38.06
  Q 37.31 37.69 38.72 36.49
  Q 39.20 36.07 39.71 36.46
  L 41.73 38.01
  Q 42.33 38.48 42.13 39.21
  Q 41.85 40.24 42.18 41.24
  C 43.83 46.26 51.35 43.74 49.83 38.98
  Q 48.53 34.91 43.96 36.49
  Q 43.47 36.66 43.04 36.35
  L 40.99 34.89
  Q 40.47 34.53 40.67 33.93
  Q 41.87 30.36 40.26 27.43
  A 0.79 0.78 54.8 0 1 40.42 26.48
  L 43.58 23.57
  Q 44.04 23.15 44.60 23.40
  Q 48.60 25.14 51.09 21.89
  C 53.97 18.13 50.00 12.83 45.56 14.25
  C 42.92 15.10 40.98 18.20 42.41 21.06
  Q 42.68 21.59 42.24 21.99
  L 39.09 24.88
  Q 38.63 25.31 38.08 24.99
  Q 34.05 22.60 30.08 24.92
  Q 29.53 25.24 29.08 24.79
  Z
  M 26.01 19.01
  A 4.01 4.01 0.0 0 0 22.00 15.00
  A 4.01 4.01 0.0 0 0 17.99 19.01
  A 4.01 4.01 0.0 0 0 22.00 23.02
  A 4.01 4.01 0.0 0 0 26.01 19.01
  Z
  M 37.52 48.00
  A 3.53 3.53 0.0 0 0 33.99 44.47
  A 3.53 3.53 0.0 0 0 30.46 48.00
  A 3.53 3.53 0.0 0 0 33.99 51.53
  A 3.53 3.53 0.0 0 0 37.52 48.00
  Z"
/>
<path fill="#8f6fa0" d="
  M 25.92 9.62
  Q 26.44 10.33 26.20 10.99
  A 0.98 0.98 0.0 0 1 24.45 11.18
  L 23.36 9.43
  Q 23.03 8.40 23.79 8.10
  Q 25.07 7.61 25.92 9.62
  Z"
/>
<path fill="#8f6fa0" d="
  M 46.12 10.44
  Q 45.72 11.32 45.05 11.55
  Q 44.26 11.81 43.90 11.14
  Q 43.59 10.55 44.12 9.59
  Q 44.81 7.95 45.87 8.02
  Q 46.43 8.05 46.60 8.58
  Q 46.87 9.41 46.12 10.44
  Z"
/>
<path fill="#8f6fa0" d="
  M 30.08 24.92
  Q 34.05 22.60 38.08 24.99
  Q 38.63 25.31 39.09 24.88
  L 42.24 21.99
  Q 42.68 21.59 42.41 21.06
  C 40.98 18.20 42.92 15.10 45.56 14.25
  C 50.00 12.83 53.97 18.13 51.09 21.89
  Q 48.60 25.14 44.60 23.40
  Q 44.04 23.15 43.58 23.57
  L 40.42 26.48
  A 0.79 0.78 54.8 0 0 40.26 27.43
  Q 41.87 30.36 40.67 33.93
  Q 40.47 34.53 40.99 34.89
  L 43.04 36.35
  Q 43.47 36.66 43.96 36.49
  Q 48.53 34.91 49.83 38.98
  C 51.35 43.74 43.83 46.26 42.18 41.24
  Q 41.85 40.24 42.13 39.21
  Q 42.33 38.48 41.73 38.01
  L 39.71 36.46
  Q 39.20 36.07 38.72 36.49
  Q 37.31 37.69 35.55 38.06
  Q 35.00 38.17 34.99 38.73
  L 34.93 41.93
  A 0.60 0.60 0.0 0 1 34.25 42.52
  L 33.83 42.47
  Q 32.92 42.35 32.93 41.44
  L 32.96 38.91
  Q 32.97 38.25 32.34 38.07
  Q 28.94 37.08 27.42 34.03
  Q 27.15 33.47 26.53 33.58
  L 22.76 34.26
  Q 22.28 34.35 22.05 34.77
  C 20.77 37.03 18.12 38.17 16.45 35.59
  C 14.51 32.58 18.47 29.34 21.27 32.07
  A 0.92 0.90 -27.5 0 0 22.06 32.31
  L 26.13 31.61
  Q 26.64 31.52 26.70 31.00
  Q 26.90 29.05 27.78 27.27
  Q 28.08 26.68 27.60 26.22
  L 25.19 23.88
  A 0.86 0.85 42.2 0 1 25.13 22.71
  L 25.35 22.46
  Q 26.01 21.70 26.72 22.41
  L 29.08 24.79
  Q 29.53 25.24 30.08 24.92
  Z
  M 49.94 18.98
  A 2.96 2.96 0.0 0 0 46.98 16.02
  A 2.96 2.96 0.0 0 0 44.02 18.98
  A 2.96 2.96 0.0 0 0 46.98 21.94
  A 2.96 2.96 0.0 0 0 49.94 18.98
  Z
  M 39.09 31.01
  A 5.09 5.09 0.0 0 0 34.00 25.92
  A 5.09 5.09 0.0 0 0 28.91 31.01
  A 5.09 5.09 0.0 0 0 34.00 36.10
  A 5.09 5.09 0.0 0 0 39.09 31.01
  Z
  M 19.94 33.98
  A 0.98 0.98 0.0 0 0 18.96 33.00
  A 0.98 0.98 0.0 0 0 17.98 33.98
  A 0.98 0.98 0.0 0 0 18.96 34.96
  A 0.98 0.98 0.0 0 0 19.94 33.98
  Z
  M 47.94 40.02
  A 1.94 1.94 0.0 0 0 46.00 38.08
  A 1.94 1.94 0.0 0 0 44.06 40.02
  A 1.94 1.94 0.0 0 0 46.00 41.96
  A 1.94 1.94 0.0 0 0 47.94 40.02
  Z"
/>
<path fill="#8f6fa0" d="
  M 26.01 19.01
  A 4.01 4.01 0.0 0 1 22.00 23.02
  A 4.01 4.01 0.0 0 1 17.99 19.01
  A 4.01 4.01 0.0 0 1 22.00 15.00
  A 4.01 4.01 0.0 0 1 26.01 19.01
  Z
  M 23.97 19.01
  A 1.95 1.95 0.0 0 0 22.02 17.06
  A 1.95 1.95 0.0 0 0 20.07 19.01
  A 1.95 1.95 0.0 0 0 22.02 20.96
  A 1.95 1.95 0.0 0 0 23.97 19.01
  Z"
/>
<circle fill="#72cbae" cx="46.98" cy="18.98" r="2.96"/>
<circle fill="#aeb5d0" cx="22.02" cy="19.01" r="1.95"/>
<path fill="#aeb5d0" d="
  M 9.79 22.55
  Q 9.46 27.26 6.98 31.16
  L 9.79 22.55
  Z"
/>
<circle fill="#85caf7" cx="34.00" cy="31.01" r="5.09"/>
<path fill="#d4bdd7" d="
  M 59.86 26.29
  C 60.27 31.90 58.47 36.60 56.44 41.67
  C 55.19 44.81 54.61 48.96 55.29 51.75
  Q 56.35 56.10 55.68 58.93
  Q 54.97 56.37 54.84 53.58
  Q 54.73 51.02 54.35 48.94
  Q 53.83 46.02 54.57 44.23
  Q 58.66 34.31 58.91 31.68
  Q 59.31 27.50 59.86 26.29
  Z"
/>
<circle fill="#fef6ee" cx="18.96" cy="33.98" r="0.98"/>
<circle fill="#ed7898" cx="46.00" cy="40.02" r="1.94"/>
<path fill="#d4bdd7" d="
  M 9.89 44.04
  Q 8.42 42.91 5.88 42.58
  Q 7.51 41.60 9.13 42.39
  Q 10.07 42.86 9.89 44.04
  Z"
/>
<path fill="#8f6fa0" d="
  M 37.52 48.00
  A 3.53 3.53 0.0 0 1 33.99 51.53
  A 3.53 3.53 0.0 0 1 30.46 48.00
  A 3.53 3.53 0.0 0 1 33.99 44.47
  A 3.53 3.53 0.0 0 1 37.52 48.00
  Z
  M 33.03 48.92
  Q 32.95 49.28 33.03 49.69
  Q 33.13 50.28 33.71 50.13
  Q 34.72 49.88 35.51 49.12
  A 1.66 1.65 37.6 0 0 35.16 46.48
  Q 33.08 45.32 32.06 47.25
  Q 31.76 47.81 31.95 48.30
  Q 32.22 48.99 33.03 48.92
  Z"
/>
<path fill="#aeb5d0" d="
  M 33.03 48.92
  L 34.23 49.02
  Q 34.81 49.07 35.02 48.53
  Q 35.21 48.03 35.02 47.56
  A 1.15 1.14 43.4 0 0 32.88 47.61
  Q 32.76 47.98 33.03 48.92
  Q 32.22 48.99 31.95 48.30
  Q 31.76 47.81 32.06 47.25
  Q 33.08 45.32 35.16 46.48
  A 1.66 1.65 37.6 0 1 35.51 49.12
  Q 34.72 49.88 33.71 50.13
  Q 33.13 50.28 33.03 49.69
  Q 32.95 49.28 33.03 48.92
  Z"
/>
<path fill="#d4bdd7" d="
  M 13.01 57.23
  Q 9.85 56.88 10.01 54.13
  L 13.01 57.23
  Z"
/>
<path fill="#d4bdd7" d="
  M 23.20 60.33
  L 22.92 57.50
  Q 22.87 56.96 22.33 56.95
  L 21.04 56.91
  Q 21.07 56.77 21.10 56.65
  Q 21.14 56.40 21.39 56.36
  Q 22.47 56.18 23.46 56.64
  Q 23.92 56.85 23.93 57.36
  Q 23.98 58.87 23.20 60.33
  Z"
/>
<path fill="#d4bdd7" d="
  M 20.04 57.01
  Q 20.01 57.40 19.87 57.65
  Q 19.73 57.89 19.32 57.93
  Q 16.26 58.27 13.09 57.65
  L 20.04 57.01
  Z"
/>
</svg>
