<svg width="940" height="940" viewBox="0 0 940 940" fill="none" xmlns="http://www.w3.org/2000/svg">
<path d="M719.834 249.247C722.282 251.107 724.485 252.233 726.444 252.625" stroke="#8D93AB" stroke-width="2"/>
<path d="M726.444 252.625C717.533 254.485 711.169 259.675 707.35 268.194C704.758 273.972 704.406 280.504 706.362 286.508C708.318 292.513 712.442 297.557 717.925 300.653C750.384 319.012 795.769 299.919 775.794 256.591C773.248 251.107 774.961 248.708 780.934 249.394C881.984 260.556 951.75 129.397 859.512 61.2469C817.31 30.1094 769.919 21.8354 717.337 36.425C596.312 69.9125 592.641 223.397 719.834 249.247" stroke="#9AA0B5" stroke-width="2"/>
<path d="M726.444 252.625C738.487 256.346 749.797 256.786 760.372 253.947C766.051 252.478 766.1 250.765 760.519 248.806C747.3 244.106 733.739 244.253 719.834 249.247" stroke="#E3E6ED" stroke-width="2"/>
<path d="M546.816 861.128C675.576 759.589 738.879 627.009 736.725 463.391C736.725 458.397 734.179 455.802 729.087 455.606C720.079 455.215 712.833 456.683 707.35 460.012" stroke="#8D93AB" stroke-width="2"/>
<path d="M707.35 460.012C626.569 458.642 577.953 417.419 561.503 336.344" stroke="#9AA0B5" stroke-width="2"/>
<path d="M561.503 336.344C553.572 309.612 571.784 294.484 573.4 272.013" stroke="#686F8E" stroke-width="2"/>
<path d="M573.4 272.012C579.275 236.958 566.007 216.298 533.597 210.031C515.384 206.506 502.166 213.409 485.862 219.431C483.512 220.215 481.211 220.166 478.959 219.284C477.001 218.403 475.826 217.032 475.434 215.172C474.651 211.157 476.022 208.122 479.547 206.066L507.159 189.469C509.223 188.235 510.897 186.437 511.988 184.281C513.079 182.125 513.543 179.698 513.328 177.278C508.139 125.97 485.569 87.1458 445.619 60.8062C441.373 58.1023 436.592 56.4417 431.666 55.9594C423.93 55.0781 416.537 53.1198 409.487 50.0844C329.587 15.7156 194.903 38.0406 153.044 123.962C150.929 128.293 147.691 132.036 143.644 134.831C106.827 159.898 88.2719 194.511 87.9781 238.672C87.9781 241.414 89.3 242.442 91.9437 241.756C68.4437 247.533 95.224 240.924 172.284 221.928C174.83 221.243 175.858 219.676 175.369 217.228C168.319 173.655 175.76 142.273 197.694 123.081C202.002 119.36 205.674 119.899 208.709 124.697L211.059 128.516C212.43 130.572 212.283 132.53 210.619 134.391C197.89 148.491 191.819 163.961 192.406 180.803C195.931 273.775 342.219 165.087 357.347 264.375C362.047 294.925 338.106 319.6 318.278 339.575C315.464 342.399 313.469 345.933 312.506 349.801C311.542 353.67 311.646 357.727 312.807 361.541C313.968 365.355 316.142 368.782 319.097 371.458C322.052 374.133 325.678 375.957 329.587 376.734C340.946 378.986 352.5 381.336 364.25 383.784C389.366 388.925 410.222 406.844 392.891 432.841C391.618 434.701 389.904 435.778 387.75 436.072C386.379 436.268 385.106 436.023 383.931 435.337C380.308 433.183 378.693 430.05 379.084 425.937C379.868 418.104 377.371 411.837 371.594 407.137C366.6 403.221 360.725 401.214 353.969 401.116C282 399.647 276.859 350.003 324.447 305.794C347.359 284.644 346.919 251.303 311.962 240.728C274.216 229.419 240.728 264.669 197.106 234.266C195.3 233.029 193.151 232.392 190.964 232.445C188.776 232.498 186.66 233.237 184.916 234.559C158.478 254.828 133.656 243.225 108.541 257.031C98.5531 262.612 94.5385 271.474 96.4969 283.616C100.805 310.934 109.471 334.826 122.494 355.291C125.333 359.697 125.921 364.446 124.256 369.537L101.637 439.744C101.043 441.549 100.919 443.475 101.278 445.341C101.636 447.207 102.465 448.951 103.686 450.407C104.907 451.863 106.479 452.983 108.254 453.662C110.029 454.341 111.947 454.555 113.828 454.284L149.666 448.85C157.891 447.675 161.171 451.151 159.506 459.278L156.422 474.406C154.6 483.163 155.383 492.257 158.673 500.56C161.963 508.863 167.615 516.009 174.928 521.113C199.75 538.591 235.587 581.478 216.053 612.616C201.757 635.528 195.344 633.423 196.812 606.3C196.812 606.3 197.939 602.139 200.191 593.816C201.464 589.018 200.974 584.367 198.722 579.863C190.301 562.727 177.915 547.501 161.562 534.184C158.743 531.878 155.453 530.217 151.921 529.316C148.389 528.415 144.7 528.296 141.109 528.967C137.518 529.638 134.111 531.082 131.125 533.2C128.139 535.319 125.645 538.06 123.816 541.234C91.5031 597.487 37.7469 685.172 39.95 749.209C41.5167 795.426 41.5656 842.72 40.0969 891.091C39.901 896.672 42.5937 899.414 48.175 899.316L122.934 897.847C130.082 897.651 133.362 894.028 132.775 886.978L125.431 804.875C125.183 802.242 124.043 799.773 122.2 797.876C120.357 795.98 117.922 794.77 115.297 794.447C105.309 793.272 95.7625 790.187 86.6562 785.194C79.2146 781.081 76.6198 775.108 78.8719 767.275C79.5231 765.097 80.9778 763.248 82.9414 762.103C84.9049 760.957 87.2305 760.601 89.4469 761.106C192.406 784.606 157.009 693.103 186.678 641.109C187.614 639.396 189.171 638.107 191.029 637.506C192.886 636.905 194.903 637.038 196.666 637.878C208.22 643.361 220.215 645.956 232.65 645.662C237.008 645.588 241.242 647.118 244.546 649.962C247.849 652.805 249.993 656.764 250.569 661.084C252.723 678.024 254.387 695.649 255.562 713.959C255.954 719.834 258.353 724.681 262.759 728.5C267.949 733.004 274.411 733.102 282.147 728.794C284.649 727.369 286.729 725.327 288.173 722.876C289.618 720.425 290.377 717.652 290.372 714.841L290.959 632.444C291.002 630.299 290.47 628.169 289.414 626.263C288.358 624.358 286.815 622.742 284.937 621.575C273.481 614.525 260.409 611.147 245.722 611.441C243.348 611.519 241.024 610.749 239.167 609.269C237.309 607.788 236.04 605.694 235.588 603.363L234.412 597.634C233.042 590.976 235.734 587.99 242.491 588.675C264.522 591.025 284.742 598.516 303.15 611.147C308.34 614.672 311.865 613.399 313.725 607.328C314.704 603.999 314.753 600.67 313.872 597.341C312.863 593.596 311.002 590.127 308.431 587.199C305.86 584.272 302.647 581.963 299.037 580.45C271.719 568.7 240.287 572.372 233.825 533.597C230.985 516.266 228.097 498.739 225.159 481.016C224.673 478.146 223.412 475.473 221.519 473.294C219.625 471.115 217.174 469.517 214.437 468.678C205.919 465.936 196.861 465.79 187.266 468.237C182.957 469.412 180.362 467.797 179.481 463.391L178.6 458.544C178.27 456.932 178.513 455.251 179.288 453.781C180.063 452.312 181.323 451.141 182.859 450.466C247.631 423 244.547 501.725 255.416 535.506C256.755 539.708 259.17 543.481 262.419 546.446C265.668 549.411 269.635 551.463 273.922 552.397C302.269 558.419 347.8 575.897 331.497 615.847C323.859 634.794 307.997 679.444 343.687 683.263C345.679 683.439 347.599 684.092 349.286 685.165C350.973 686.239 352.378 687.702 353.381 689.431C354.36 690.9 354.752 692.516 354.556 694.278C353.871 700.447 350.444 703.482 344.275 703.384C335.169 703.384 327.286 700.104 320.628 693.544C312.991 686.102 309.074 687.669 308.878 698.244C308.193 737.606 292.085 754.448 260.556 748.769C256.139 747.987 251.596 748.729 247.691 750.869C243.786 753.008 240.757 756.416 239.112 760.519C221.781 803.896 215.221 846.588 219.431 888.594C219.581 890.149 220.3 891.59 221.445 892.626C222.59 893.662 224.075 894.216 225.6 894.175L426.525 893.734C432.987 893.734 436.072 890.503 435.778 884.041C434.603 851.924 439.548 819.905 450.612 787.984C452.277 783.284 455.557 781.571 460.453 782.844L464.712 783.872C466.671 784.361 467.552 785.634 467.356 787.691C463.831 819.856 452.962 852.462 454.431 885.069C454.725 891.237 457.956 894.518 464.125 894.909C495.948 896.574 523.511 885.314 546.816 861.128" stroke="#9AA0B5" stroke-width="2"/>
<path d="M573.4 272.012C538.542 250.471 503.928 247.974 469.559 264.522C465.643 266.382 464.321 268.928 465.594 272.159C467.356 276.664 470.685 278.524 475.581 277.741C489.681 275.391 503.732 273.187 517.734 271.131C540.157 267.802 551.467 277.936 551.663 301.534" stroke="#BEC3D0" stroke-width="2"/>
<path d="M551.662 301.534C532.862 317.299 504.32 321.167 466.034 313.138C463.836 312.684 461.564 312.72 459.382 313.244C457.199 313.769 455.158 314.767 453.405 316.17C451.652 317.572 450.23 319.343 449.24 321.358C448.249 323.372 447.715 325.581 447.675 327.825C447.577 335.365 443.856 341.925 436.512 347.506" stroke="#E3E6ED" stroke-width="2"/>
<path d="M436.512 347.506C415.656 345.156 404.69 335.756 403.612 319.306C401.409 284.35 417.566 247.631 399.353 214.584C375.119 170.669 320.775 169.2 276.566 168.025C274.255 167.936 272.015 167.235 270.077 165.995C268.139 164.755 266.576 163.021 265.55 160.975C260.458 150.89 261.389 140.315 268.341 129.25C269.553 127.41 270.272 125.293 270.426 123.105C270.581 120.917 270.166 118.733 269.222 116.766C266.578 110.793 262.27 110.254 256.297 115.15C253.784 117.18 251.772 119.796 250.422 122.788C206.653 223.103 352.059 165.528 385.547 227.363C399.353 252.625 385.694 288.609 386.722 316.809C388.337 366.6 431.225 365.131 467.65 366.306C470.495 366.397 473.291 367.13 475.832 368.452C478.373 369.773 480.595 371.649 482.337 373.944C487.919 381.385 489.485 390.198 487.037 400.381C486.156 404.004 487.478 406.305 491.003 407.284L496.144 408.753C496.915 408.975 497.723 409.041 498.521 408.946C499.318 408.851 500.088 408.598 500.786 408.201C501.484 407.804 502.096 407.272 502.585 406.635C503.074 405.998 503.431 405.27 503.634 404.494C508.334 386.281 504.271 370.81 491.444 358.081" stroke="#BEC3D0" stroke-width="2"/>
<path d="M491.444 358.081C497.906 349.073 509.02 343.247 524.784 340.603" stroke="#E3E6ED" stroke-width="2"/>
<path d="M524.784 340.603C525.959 346.772 528.946 350.15 533.744 350.737C536.681 351.031 540.206 349.563 544.319 346.331C549.998 341.925 555.726 338.596 561.503 336.344" stroke="#BEC3D0" stroke-width="2"/>
<path d="M707.35 460.013C716.456 580.254 686.787 682.039 618.344 765.366C584.171 806.882 560.328 838.803 546.816 861.128" stroke="#E3E6ED" stroke-width="2"/>
<path d="M436.512 347.506C458.837 346.135 477.148 349.66 491.444 358.081" stroke="#B1B6C5" stroke-width="2"/>
<path d="M524.784 340.603C547.991 326.111 556.95 313.089 551.663 301.534" stroke="#B1B6C5" stroke-width="2"/>
<path d="M607.181 360.284C635.087 337.861 639.69 313.089 620.987 285.966C619.576 283.931 617.716 282.247 615.552 281.047C613.388 279.846 610.98 279.163 608.517 279.049C606.054 278.935 603.604 279.394 601.359 280.39C599.114 281.387 597.135 282.893 595.578 284.791C578.638 305.451 575.554 328.853 586.325 354.997C590.927 366.061 597.879 367.824 607.181 360.284Z" stroke="#9AA0B5" stroke-width="2"/>
<path d="M899.022 894.322C920.368 739.711 920.661 583.73 899.903 426.378" stroke="#686F8E" stroke-width="2"/>
<path d="M899.903 426.378C901.861 420.111 901.127 414.53 897.7 409.634C894.762 405.62 890.748 403.074 885.656 401.997C843.356 393.086 801.84 394.017 761.106 404.787C759.401 405.259 757.913 406.307 756.895 407.754C755.877 409.2 755.393 410.955 755.525 412.719C766.785 608.258 698.978 764.876 552.103 882.572C540.647 891.776 542.262 896.133 556.95 895.644L625.247 893.441C645.516 892.853 662.406 885.02 675.919 869.941C710.777 830.872 737.41 788.425 755.819 742.6C756.994 739.76 759.001 738.879 761.841 739.956L766.1 741.572C767.832 742.251 769.237 743.558 770.007 745.208C770.777 746.859 770.851 748.72 770.212 750.384C750.825 804.141 722.135 849.77 684.144 887.272C679.444 891.874 680.374 894.175 686.934 894.175L899.022 894.322" stroke="#9AA0B5" stroke-width="2"/>
<path d="M899.903 426.378C889.328 583.045 889.034 739.026 899.022 894.322" stroke="#BEC3D0" stroke-width="2"/>
<path d="M757.581 122.347C730.36 90.0344 701.622 86.8521 671.366 112.8C667.155 116.521 664.511 121.123 663.434 126.606C651.978 188.881 722.772 206.359 756.259 161.416C760.666 155.541 765.317 155.296 770.212 160.681C779.319 170.816 787.544 179.628 800.763 183.888C834.544 194.756 876.109 168.319 864.359 130.278C850.406 85.6281 795.328 86.3625 770.8 121.759C770.09 122.814 769.143 123.686 768.032 124.307C766.92 124.927 765.675 125.28 764.395 125.337C763.114 125.394 761.833 125.153 760.65 124.635C759.468 124.116 758.418 123.333 757.581 122.347Z" stroke="#9AA0B5" stroke-width="2"/>
<path d="M408.606 82.6906C408.312 77.5011 409.145 72.5073 411.103 67.7094C411.79 66.0602 411.841 64.2108 411.246 62.5076C410.651 60.8043 409.452 59.364 407.872 58.4563L404.347 56.5469C402.878 55.6656 401.654 55.9594 400.675 57.4281C372.328 98.9938 415.803 117.206 447.969 121.759C455.312 122.836 460.257 126.9 462.803 133.95L469.706 153.044C473.525 163.619 477.295 163.57 481.016 152.897C484.932 141.93 482.533 131.404 473.819 121.319C460.453 105.897 436.512 102.078 418.153 95.3219C412.278 93.1677 409.096 88.9573 408.606 82.6906Z" stroke="#BEC3D0" stroke-width="2"/>
<path d="M332.819 99.5813L347.506 74.025C349.758 70.0104 348.583 67.8073 343.981 67.4156L336.197 66.6813C335.248 66.5899 334.288 66.7286 333.394 67.086C332.501 67.4434 331.7 68.0093 331.056 68.7375C303.591 100.609 309.319 137.916 351.325 145.7C389.659 152.75 425.35 153.925 430.197 202.834C430.33 204.207 430.77 205.529 431.482 206.699C432.195 207.87 433.161 208.858 434.309 209.591C437.051 211.255 439.45 211.108 441.506 209.15C443.758 207.094 444.884 204.499 444.884 201.366C444.15 138.063 390.834 134.391 344.275 124.844C341.629 124.323 339.147 123.177 337.032 121.5C334.918 119.823 333.233 117.662 332.115 115.196C330.996 112.73 330.477 110.029 330.599 107.314C330.722 104.599 331.482 101.949 332.819 99.5813Z" stroke="#BEC3D0" stroke-width="2"/>
<path d="M150.987 340.163C176.446 327.238 201.855 324.398 227.216 331.644C232.209 333.113 235.49 331.35 237.056 326.356L238.378 322.097C238.743 320.98 238.688 319.773 238.226 318.713C237.764 317.653 236.927 316.816 235.881 316.369C205.527 303.738 175.271 306.136 145.113 323.566C143.398 324.544 142.125 326.151 141.552 328.06C140.98 329.968 141.15 332.037 142.028 333.847L144.084 337.959C144.711 339.164 145.788 340.071 147.082 340.484C148.375 340.897 149.779 340.781 150.987 340.163Z" stroke="#9AA0B5" stroke-width="2"/>
<path d="M205.772 343.394L152.456 356.613C151.843 356.785 151.319 357.185 150.992 357.731C150.664 358.277 150.558 358.928 150.694 359.55L151.134 361.313C151.663 363.468 152.77 365.46 154.392 367.173C156.015 368.886 158.121 370.288 160.59 371.297C163.059 372.307 165.842 372.904 168.781 373.056C171.721 373.208 174.758 372.91 177.719 372.181L190.791 368.95C196.753 367.483 202.048 364.356 205.516 360.254C208.985 356.152 210.344 351.41 209.297 347.066L208.856 345.303C208.788 344.971 208.652 344.656 208.457 344.377C208.263 344.099 208.014 343.863 207.725 343.684C207.436 343.506 207.114 343.388 206.778 343.338C206.443 343.288 206.1 343.307 205.772 343.394Z" stroke="#9AA0B5" stroke-width="2"/>
<path d="M443.856 709.259L465.594 682.528" stroke="#E3E6ED" stroke-width="2"/>
<path d="M465.594 682.528C482.142 695.845 497.27 698.88 510.978 691.634" stroke="#BEC3D0" stroke-width="2"/>
<path d="M510.978 691.634C530.561 701.72 549.068 700.398 566.497 687.669C587.157 672.394 582.898 653.496 553.719 630.975" stroke="#E3E6ED" stroke-width="2"/>
<path d="M553.719 630.975C535.017 613.448 526.645 597.781 528.603 583.975C537.122 524.784 559.006 457.369 486.156 427.259C483.512 426.182 481.603 426.966 480.428 429.609L478.372 434.162C477.705 435.798 477.65 437.618 478.217 439.291C478.783 440.963 479.933 442.375 481.456 443.269C520.917 465.985 531.541 499.13 513.328 542.703" stroke="#BEC3D0" stroke-width="2"/>
<path d="M513.328 542.703L484.688 539.766" stroke="#E3E6ED" stroke-width="2"/>
<path d="M484.687 539.766C485.569 491.982 465.643 458.495 424.909 439.303C420.405 437.247 417.223 438.52 415.362 443.122L413.6 447.675C412.621 450.123 413.306 451.885 415.656 452.962C455.312 472.056 470.343 502.264 460.747 543.584" stroke="#BEC3D0" stroke-width="2"/>
<path d="M460.747 543.584L428.434 542.997" stroke="#E3E6ED" stroke-width="2"/>
<path d="M428.434 542.997C431.225 491.003 402.291 472.056 355.584 465.741C350.786 465.153 346.968 462.852 344.128 458.837C339.232 451.69 338.351 443.367 341.484 433.869C341.95 432.466 341.84 430.937 341.179 429.615C340.518 428.294 339.36 427.288 337.959 426.819L333.259 425.203C332.369 424.885 331.421 424.761 330.482 424.841C329.542 424.92 328.634 425.201 327.822 425.663C327.01 426.125 326.313 426.757 325.781 427.515C325.248 428.273 324.893 429.139 324.741 430.05C315.341 478.078 347.653 480.428 381.581 491.297" stroke="#BEC3D0" stroke-width="2"/>
<path d="M381.581 491.297L355.584 529.044" stroke="#E3E6ED" stroke-width="2"/>
<path d="M355.584 529.044L306.528 508.775C301.143 506.523 298.597 502.508 298.891 496.731C299.919 475.434 295.953 435.338 275.831 425.791C269.76 422.853 263.885 422.804 258.206 425.644C252.723 428.385 252.674 431.225 258.059 434.163C277.153 444.64 285.28 461.334 282.441 484.247C280.884 496.725 284.268 509.317 291.87 519.334C299.471 529.35 310.688 535.998 323.125 537.856C377.909 545.934 357.494 604.684 358.669 638.906C358.98 647.933 361.986 656.659 367.3 663.962C372.614 671.265 379.992 676.811 388.484 679.884C420.405 691.537 428.777 713.323 413.6 745.244C413.159 746.167 412.909 747.169 412.863 748.191C412.817 749.213 412.977 750.234 413.333 751.193C413.689 752.152 414.234 753.029 414.936 753.773C415.638 754.518 416.482 755.113 417.419 755.525L421.384 757.288C422.853 757.973 423.979 757.63 424.762 756.259C433.575 741.866 439.94 726.199 443.856 709.259" stroke="#BEC3D0" stroke-width="2"/>
<path d="M355.584 529.044C387.75 563.413 380.847 595.431 377.322 634.059C376.245 646.397 381.385 655.111 392.744 660.203C416.537 670.876 433.575 687.228 443.856 709.259" stroke="#B1B6C5" stroke-width="2"/>
<path d="M484.687 539.766C477.735 561.797 471.126 584.416 464.859 607.622C455.361 642.872 470.734 670.876 510.978 691.634" stroke="#B1B6C5" stroke-width="2"/>
<path d="M465.594 682.528C423.734 641.991 452.816 589.85 460.747 543.584" stroke="#B1B6C5" stroke-width="2"/>
<path d="M428.434 542.997C426.672 550.732 421.335 550.047 412.425 540.941C411.542 540.015 410.853 538.915 410.399 537.704C409.945 536.494 409.735 535.197 409.781 533.891C410.565 512.349 401.165 498.151 381.581 491.297" stroke="#B1B6C5" stroke-width="2"/>
<path d="M553.719 630.975C538.15 637.535 526.498 631.318 518.762 612.322C510.244 591.564 508.432 568.357 513.328 542.703" stroke="#B1B6C5" stroke-width="2"/>
<path d="M741.719 152.016C748.279 145.455 748.475 138.65 742.306 131.6C724.779 111.723 706.665 108.785 687.962 122.788C685.293 124.785 683.091 127.341 681.511 130.277C679.931 133.214 679.011 136.459 678.816 139.788C678.62 143.117 679.153 146.448 680.378 149.549C681.602 152.65 683.489 155.447 685.906 157.744C703.14 173.9 721.744 171.991 741.719 152.016Z" stroke="#9AA0B5" stroke-width="2"/>
<path d="M830.431 117.206C827.451 114.852 823.85 113.418 820.067 113.079C816.285 112.74 812.486 113.511 809.134 115.297L792.978 123.816C789.894 125.462 787.308 127.907 785.49 130.894C783.673 133.88 782.69 137.3 782.645 140.796C782.6 144.292 783.495 147.737 785.235 150.769C786.975 153.802 789.497 156.312 792.537 158.038L808.106 166.85C811.388 168.739 815.148 169.634 818.929 169.426C822.71 169.217 826.349 167.914 829.403 165.675L841.006 157.009C843.418 155.231 845.388 152.921 846.764 150.259C848.14 147.598 848.885 144.655 848.942 141.659C848.999 138.663 848.365 135.694 847.091 132.982C845.817 130.27 843.936 127.888 841.594 126.019L830.431 117.206Z" stroke="#9AA0B5" stroke-width="2"/>
<path d="M705.734 366.453C705.734 361.857 703.908 357.448 700.658 354.198C697.408 350.948 693 349.122 688.403 349.122C683.807 349.122 679.398 350.948 676.148 354.198C672.898 357.448 671.072 361.857 671.072 366.453C671.072 371.05 672.898 375.458 676.148 378.708C679.398 381.958 683.807 383.784 688.403 383.784C693 383.784 697.408 381.958 700.658 378.708C703.908 375.458 705.734 371.05 705.734 366.453Z" stroke="#9AA0B5" stroke-width="2"/>
<path d="M799.441 284.056C791.216 339.722 719.247 338.988 691.047 297.863C687.816 293.065 686.788 287.826 687.963 282.147C689.04 277.349 688.795 272.551 687.228 267.753C685.564 262.955 682.479 259.283 677.975 256.738C562.531 191.378 595.872 44.3563 718.659 17.1844C807.078 -2.34997 917.528 40.0969 920.613 142.175C922.816 208.269 870.675 258.353 809.134 273.334C803.553 274.803 800.322 278.377 799.441 284.056ZM719.834 249.247C722.282 251.107 724.485 252.233 726.444 252.625C717.533 254.485 711.169 259.675 707.35 268.194C704.758 273.972 704.406 280.504 706.362 286.508C708.318 292.513 712.442 297.557 717.925 300.653C750.384 319.013 795.769 299.919 775.794 256.591C773.248 251.107 774.961 248.708 780.934 249.394C881.984 260.556 951.75 129.397 859.513 61.2469C817.31 30.1094 769.919 21.8354 717.338 36.425C596.313 69.9125 592.641 223.397 719.834 249.247Z" fill="#444C73" fill-opacity="0.996"/>
<path d="M736.138 424.616C734.473 415.901 734.522 407.186 736.284 398.472C736.769 395.933 737.988 393.593 739.789 391.739C741.59 389.886 743.895 388.601 746.419 388.044C797.825 376.196 852.169 376.098 909.45 387.75C918.165 389.513 922.522 394.849 922.522 403.759L922.375 905.191C922.336 908.788 920.88 912.225 918.323 914.755C915.765 917.284 912.313 918.703 908.716 918.703L209.737 918.85C208.011 918.86 206.339 918.222 205.039 917.058C203.74 915.893 202.903 914.284 202.688 912.534C195.148 842.328 204.303 785.096 230.153 740.838C240.875 722.772 237.35 694.866 232.797 675.625C230.643 666.421 224.866 662.015 215.466 662.406L209.297 662.7C196.959 663.19 191.378 669.603 192.553 681.941C196.764 726.689 182.81 760.029 150.694 781.963C145.308 785.683 143.105 790.775 144.084 797.238L159.8 907.1C160.01 908.426 159.929 909.781 159.562 911.074C159.196 912.368 158.553 913.57 157.676 914.599C156.8 915.629 155.71 916.462 154.48 917.043C153.25 917.625 151.909 917.94 150.547 917.969L35.6906 918.409C27.1719 918.409 22.6677 914.15 22.1781 905.631C17.2823 821.227 18.6531 756.798 26.2906 712.344C32.6552 675.429 59.7781 615.455 107.659 532.422C110.316 527.764 114.512 524.137 119.556 522.141C138.356 514.405 143.399 500.452 134.684 480.281C133.902 478.534 132.619 477.057 130.999 476.038C129.378 475.019 127.492 474.502 125.578 474.553L111.919 475.141C106.435 475.336 101.442 473.819 96.9375 470.588C69.4719 451.2 95.6156 396.856 103.841 371.447C104.805 368.495 105.121 365.376 104.766 362.308C104.411 359.239 103.393 356.293 101.784 353.675C56.9875 283.175 54.7844 190.497 115.738 135.272C129.25 123.032 141.098 108.981 151.281 93.1188C210.766 1.02816 397.591 -4.84685 476.756 58.75C513.181 88.0271 531.492 127.977 531.688 178.6C531.696 181.246 532.554 183.824 534.138 185.962C535.721 188.101 537.949 189.688 540.5 190.497C570.854 200.386 589.752 219.725 597.194 248.513C598.021 251.746 599.763 254.671 602.212 256.938C604.661 259.205 607.713 260.716 611 261.291C626.863 264.13 637.584 272.502 643.166 286.406C661.182 330.567 649.09 362.585 606.888 382.463C602.188 384.715 601.355 387.995 604.391 392.303C633.668 432.645 674.744 447.577 727.619 437.1C730.381 436.531 732.814 434.91 734.403 432.581C735.993 430.251 736.615 427.395 736.138 424.616ZM546.816 861.128C675.576 759.589 738.879 627.009 736.725 463.391C736.725 458.397 734.179 455.802 729.088 455.606C720.079 455.215 712.833 456.683 707.35 460.013C626.569 458.642 577.953 417.419 561.503 336.344C553.572 309.613 571.784 294.484 573.4 272.013C579.275 236.958 566.007 216.298 533.597 210.031C515.384 206.506 502.166 213.409 485.863 219.431C483.513 220.215 481.211 220.166 478.959 219.284C477.001 218.403 475.826 217.032 475.434 215.172C474.651 211.157 476.022 208.122 479.547 206.066L507.159 189.469C509.223 188.235 510.897 186.437 511.988 184.281C513.079 182.125 513.543 179.698 513.328 177.278C508.139 125.97 485.569 87.1459 445.619 60.8063C441.373 58.1023 436.592 56.4417 431.666 55.9594C423.93 55.0782 416.537 53.1198 409.487 50.0844C329.587 15.7157 194.903 38.0406 153.044 123.963C150.929 128.293 147.691 132.037 143.644 134.831C106.827 159.898 88.2719 194.511 87.9781 238.672C87.9781 241.414 89.3 242.442 91.9438 241.756C68.4438 247.533 95.224 240.924 172.284 221.928C174.83 221.243 175.858 219.676 175.369 217.228C168.319 173.655 175.76 142.273 197.694 123.081C202.002 119.36 205.674 119.899 208.709 124.697L211.059 128.516C212.43 130.572 212.283 132.53 210.619 134.391C197.89 148.491 191.819 163.961 192.406 180.803C195.931 273.775 342.219 165.088 357.347 264.375C362.047 294.925 338.106 319.6 318.278 339.575C315.464 342.399 313.469 345.933 312.506 349.801C311.542 353.67 311.646 357.727 312.807 361.541C313.968 365.355 316.142 368.782 319.097 371.458C322.052 374.133 325.678 375.957 329.588 376.734C340.946 378.986 352.5 381.336 364.25 383.784C389.366 388.925 410.222 406.844 392.891 432.841C391.618 434.701 389.904 435.778 387.75 436.072C386.379 436.268 385.106 436.023 383.931 435.338C380.308 433.183 378.693 430.05 379.084 425.938C379.868 418.104 377.371 411.838 371.594 407.138C366.6 403.221 360.725 401.214 353.969 401.116C282 399.647 276.859 350.003 324.447 305.794C347.359 284.644 346.919 251.303 311.962 240.728C274.216 229.419 240.728 264.669 197.106 234.266C195.3 233.029 193.151 232.392 190.964 232.445C188.776 232.498 186.66 233.237 184.916 234.559C158.478 254.828 133.656 243.225 108.541 257.031C98.5531 262.613 94.5386 271.474 96.4969 283.616C100.805 310.934 109.471 334.826 122.494 355.291C125.333 359.697 125.921 364.446 124.256 369.538L101.638 439.744C101.043 441.549 100.919 443.475 101.278 445.341C101.636 447.207 102.465 448.951 103.686 450.407C104.907 451.863 106.479 452.983 108.254 453.662C110.029 454.341 111.947 454.555 113.828 454.284L149.666 448.85C157.891 447.675 161.171 451.151 159.506 459.278L156.422 474.406C154.6 483.163 155.383 492.257 158.673 500.56C161.963 508.863 167.615 516.009 174.928 521.113C199.75 538.591 235.588 581.478 216.053 612.616C201.757 635.528 195.344 633.423 196.812 606.3C196.812 606.3 197.939 602.139 200.191 593.816C201.464 589.018 200.974 584.367 198.722 579.863C190.301 562.727 177.915 547.501 161.563 534.184C158.743 531.878 155.453 530.217 151.921 529.316C148.389 528.415 144.7 528.296 141.109 528.967C137.518 529.638 134.111 531.082 131.125 533.2C128.139 535.319 125.645 538.06 123.816 541.234C91.5031 597.488 37.7469 685.172 39.95 749.209C41.5167 795.426 41.5656 842.72 40.0969 891.091C39.901 896.672 42.5938 899.414 48.175 899.316L122.934 897.847C130.082 897.651 133.363 894.028 132.775 886.978L125.431 804.875C125.183 802.242 124.043 799.773 122.2 797.877C120.357 795.98 117.922 794.77 115.297 794.447C105.309 793.272 95.7625 790.188 86.6563 785.194C79.2146 781.081 76.6198 775.108 78.8719 767.275C79.5231 765.097 80.9778 763.248 82.9414 762.103C84.905 760.957 87.2305 760.601 89.4469 761.106C192.406 784.606 157.009 693.103 186.678 641.109C187.615 639.396 189.171 638.107 191.029 637.506C192.886 636.905 194.903 637.038 196.666 637.878C208.22 643.362 220.215 645.956 232.65 645.663C237.008 645.588 241.242 647.118 244.546 649.962C247.849 652.805 249.993 656.764 250.569 661.084C252.723 678.024 254.387 695.649 255.562 713.959C255.954 719.834 258.353 724.681 262.759 728.5C267.949 733.004 274.411 733.102 282.147 728.794C284.649 727.369 286.729 725.327 288.173 722.876C289.618 720.425 290.377 717.652 290.372 714.841L290.959 632.444C291.002 630.299 290.47 628.169 289.414 626.263C288.358 624.358 286.815 622.742 284.937 621.575C273.481 614.525 260.409 611.147 245.722 611.441C243.348 611.519 241.024 610.749 239.167 609.269C237.309 607.788 236.04 605.694 235.588 603.363L234.413 597.634C233.042 590.976 235.734 587.99 242.491 588.675C264.522 591.025 284.742 598.516 303.15 611.147C308.34 614.672 311.865 613.399 313.725 607.328C314.704 603.999 314.753 600.67 313.872 597.341C312.863 593.596 311.002 590.127 308.431 587.199C305.86 584.272 302.647 581.963 299.038 580.45C271.719 568.7 240.288 572.372 233.825 533.597C230.985 516.266 228.097 498.739 225.159 481.016C224.673 478.146 223.412 475.473 221.519 473.294C219.625 471.115 217.174 469.517 214.438 468.678C205.919 465.936 196.861 465.79 187.266 468.238C182.957 469.413 180.363 467.797 179.481 463.391L178.6 458.544C178.27 456.932 178.513 455.251 179.288 453.781C180.063 452.312 181.323 451.141 182.859 450.466C247.631 423 244.547 501.725 255.416 535.506C256.755 539.708 259.17 543.481 262.419 546.446C265.668 549.411 269.635 551.463 273.922 552.397C302.269 558.419 347.8 575.897 331.497 615.847C323.859 634.794 307.997 679.444 343.687 683.263C345.679 683.439 347.599 684.092 349.286 685.165C350.973 686.239 352.378 687.702 353.381 689.431C354.36 690.9 354.752 692.516 354.556 694.278C353.871 700.447 350.444 703.482 344.275 703.384C335.169 703.384 327.286 700.104 320.628 693.544C312.991 686.102 309.074 687.669 308.878 698.244C308.193 737.606 292.085 754.448 260.556 748.769C256.139 747.987 251.596 748.729 247.691 750.869C243.786 753.008 240.757 756.416 239.113 760.519C221.781 803.896 215.221 846.588 219.431 888.594C219.581 890.149 220.3 891.59 221.445 892.626C222.59 893.662 224.075 894.216 225.6 894.175L426.525 893.734C432.988 893.734 436.072 890.503 435.778 884.041C434.603 851.924 439.548 819.905 450.613 787.984C452.277 783.284 455.557 781.571 460.453 782.844L464.712 783.872C466.671 784.361 467.552 785.634 467.356 787.691C463.831 819.856 452.963 852.463 454.431 885.069C454.725 891.238 457.956 894.518 464.125 894.909C495.948 896.574 523.511 885.314 546.816 861.128ZM607.181 360.284C635.088 337.861 639.69 313.089 620.988 285.966C619.576 283.931 617.716 282.247 615.552 281.047C613.388 279.847 610.98 279.163 608.517 279.049C606.054 278.935 603.604 279.394 601.359 280.39C599.114 281.387 597.135 282.893 595.578 284.791C578.639 305.451 575.554 328.853 586.325 354.997C590.927 366.061 597.879 367.824 607.181 360.284ZM899.022 894.322C920.368 739.711 920.661 583.73 899.903 426.378C901.861 420.111 901.127 414.53 897.7 409.634C894.763 405.62 890.748 403.074 885.656 401.997C843.356 393.086 801.84 394.017 761.106 404.788C759.401 405.259 757.913 406.307 756.895 407.754C755.877 409.2 755.393 410.955 755.525 412.719C766.785 608.258 698.978 764.876 552.103 882.572C540.647 891.776 542.263 896.133 556.95 895.644L625.247 893.441C645.516 892.853 662.406 885.02 675.919 869.941C710.777 830.872 737.41 788.425 755.819 742.6C756.994 739.76 759.001 738.879 761.841 739.956L766.1 741.572C767.832 742.251 769.237 743.558 770.007 745.209C770.778 746.859 770.851 748.72 770.213 750.384C750.825 804.141 722.135 849.77 684.144 887.272C679.444 891.874 680.374 894.175 686.934 894.175L899.022 894.322Z" fill="#444C73" fill-opacity="0.996"/>
<path d="M726.444 252.625C738.487 256.346 749.797 256.786 760.372 253.947C766.051 252.478 766.1 250.765 760.519 248.806C747.3 244.106 733.738 244.253 719.834 249.247C592.641 223.397 596.312 69.9125 717.337 36.425C769.919 21.8354 817.31 30.1094 859.512 61.2469C951.75 129.397 881.984 260.556 780.934 249.394C774.961 248.708 773.248 251.107 775.794 256.591C795.769 299.919 750.384 319.012 717.925 300.653C712.442 297.557 708.318 292.513 706.362 286.508C704.406 280.504 704.758 273.972 707.35 268.194C711.169 259.675 717.533 254.485 726.444 252.625ZM757.581 122.347C730.36 90.0344 701.622 86.8521 671.366 112.8C667.155 116.521 664.511 121.123 663.434 126.606C651.978 188.881 722.772 206.359 756.259 161.416C760.666 155.541 765.317 155.296 770.212 160.681C779.319 170.816 787.544 179.628 800.762 183.888C834.544 194.756 876.109 168.319 864.359 130.278C850.406 85.6281 795.328 86.3625 770.8 121.759C770.09 122.814 769.143 123.686 768.032 124.307C766.92 124.927 765.675 125.28 764.395 125.337C763.114 125.394 761.832 125.153 760.65 124.635C759.468 124.116 758.418 123.333 757.581 122.347Z" fill="#F0F3F7"/>
<path d="M573.4 272.012C538.542 250.471 503.928 247.974 469.559 264.522C465.643 266.382 464.321 268.928 465.594 272.159C467.356 276.664 470.685 278.524 475.581 277.741C489.681 275.391 503.732 273.187 517.734 271.131C540.157 267.802 551.467 277.936 551.663 301.534C532.863 317.299 504.32 321.167 466.034 313.137C463.836 312.684 461.564 312.72 459.382 313.244C457.199 313.768 455.158 314.767 453.405 316.17C451.652 317.572 450.23 319.343 449.24 321.358C448.249 323.372 447.715 325.58 447.675 327.825C447.577 335.365 443.856 341.925 436.512 347.506C415.656 345.156 404.69 335.756 403.612 319.306C401.409 284.35 417.566 247.631 399.353 214.584C375.119 170.669 320.775 169.2 276.566 168.025C274.255 167.936 272.015 167.235 270.077 165.995C268.139 164.755 266.576 163.021 265.55 160.975C260.458 150.89 261.389 140.315 268.341 129.25C269.553 127.41 270.272 125.293 270.426 123.105C270.581 120.917 270.166 118.733 269.222 116.766C266.578 110.793 262.27 110.254 256.297 115.15C253.784 117.18 251.772 119.796 250.422 122.787C206.653 223.103 352.059 165.528 385.547 227.362C399.353 252.625 385.694 288.609 386.722 316.809C388.337 366.6 431.225 365.131 467.65 366.306C470.495 366.397 473.291 367.13 475.832 368.452C478.373 369.773 480.595 371.649 482.337 373.944C487.919 381.385 489.485 390.198 487.037 400.381C486.156 404.004 487.478 406.305 491.003 407.284L496.144 408.753C496.915 408.975 497.723 409.041 498.521 408.946C499.318 408.851 500.088 408.598 500.786 408.201C501.484 407.804 502.096 407.272 502.585 406.635C503.074 405.998 503.431 405.27 503.634 404.494C508.334 386.281 504.271 370.81 491.444 358.081C497.906 349.073 509.02 343.247 524.784 340.603C525.959 346.772 528.946 350.15 533.744 350.737C536.681 351.031 540.206 349.562 544.319 346.331C549.998 341.925 555.726 338.596 561.503 336.344C577.953 417.419 626.569 458.642 707.35 460.012C716.456 580.254 686.787 682.039 618.344 765.366C584.171 806.882 560.328 838.803 546.816 861.128C523.511 885.314 495.948 896.574 464.125 894.909C457.956 894.518 454.725 891.237 454.431 885.069C452.962 852.462 463.831 819.856 467.356 787.691C467.552 785.634 466.671 784.361 464.712 783.872L460.453 782.844C455.557 781.571 452.277 783.284 450.612 787.984C439.548 819.905 434.603 851.924 435.778 884.041C436.072 890.503 432.987 893.734 426.525 893.734L225.6 894.175C224.075 894.216 222.59 893.662 221.445 892.626C220.3 891.59 219.581 890.149 219.431 888.594C215.221 846.588 221.781 803.896 239.113 760.519C240.757 756.416 243.786 753.008 247.691 750.869C251.596 748.729 256.139 747.987 260.556 748.769C292.085 754.448 308.193 737.606 308.878 698.244C309.074 687.669 312.991 686.102 320.628 693.544C327.286 700.104 335.169 703.384 344.275 703.384C350.444 703.482 353.871 700.447 354.556 694.278C354.752 692.516 354.36 690.9 353.381 689.431C352.378 687.702 350.973 686.239 349.286 685.165C347.599 684.092 345.679 683.439 343.687 683.263C307.997 679.444 323.859 634.794 331.497 615.847C347.8 575.897 302.269 558.419 273.922 552.397C269.635 551.463 265.668 549.411 262.419 546.446C259.17 543.481 256.755 539.708 255.416 535.506C244.547 501.725 247.631 423 182.859 450.466C181.323 451.141 180.063 452.312 179.288 453.781C178.513 455.251 178.27 456.932 178.6 458.544L179.481 463.391C180.363 467.797 182.957 469.412 187.266 468.237C196.861 465.79 205.919 465.936 214.438 468.678C217.174 469.517 219.625 471.115 221.519 473.294C223.412 475.473 224.673 478.146 225.159 481.016C228.097 498.739 230.985 516.266 233.825 533.597C240.288 572.372 271.719 568.7 299.037 580.45C302.647 581.963 305.86 584.272 308.431 587.199C311.002 590.127 312.863 593.596 313.872 597.341C314.753 600.67 314.704 603.999 313.725 607.328C311.865 613.399 308.34 614.672 303.15 611.147C284.742 598.516 264.522 591.025 242.491 588.675C235.734 587.99 233.042 590.976 234.413 597.634L235.588 603.363C236.04 605.694 237.309 607.788 239.167 609.269C241.024 610.749 243.348 611.519 245.722 611.441C260.409 611.147 273.481 614.525 284.937 621.575C286.815 622.742 288.358 624.358 289.414 626.263C290.47 628.169 291.002 630.299 290.959 632.444L290.372 714.841C290.377 717.652 289.618 720.425 288.173 722.876C286.729 725.327 284.649 727.369 282.147 728.794C274.411 733.102 267.949 733.004 262.759 728.5C258.353 724.681 255.954 719.834 255.562 713.959C254.387 695.649 252.723 678.024 250.569 661.084C249.993 656.764 247.849 652.805 244.546 649.962C241.242 647.118 237.008 645.588 232.65 645.662C220.215 645.956 208.22 643.361 196.666 637.878C194.903 637.038 192.886 636.905 191.029 637.506C189.171 638.107 187.615 639.396 186.678 641.109C157.009 693.103 192.406 784.606 89.4469 761.106C87.2305 760.601 84.9049 760.957 82.9414 762.103C80.9778 763.248 79.5231 765.097 78.8719 767.275C76.6198 775.108 79.2146 781.081 86.6562 785.194C95.7625 790.187 105.309 793.272 115.297 794.447C117.922 794.77 120.357 795.98 122.2 797.876C124.043 799.773 125.183 802.242 125.431 804.875L132.775 886.978C133.362 894.028 130.082 897.651 122.934 897.847L48.175 899.316C42.5937 899.414 39.901 896.672 40.0969 891.091C41.5656 842.72 41.5167 795.426 39.95 749.209C37.7469 685.172 91.5031 597.487 123.816 541.234C125.645 538.06 128.139 535.319 131.125 533.2C134.111 531.082 137.518 529.638 141.109 528.967C144.7 528.296 148.389 528.415 151.921 529.316C155.453 530.217 158.743 531.878 161.562 534.184C177.915 547.501 190.301 562.727 198.722 579.863C200.974 584.367 201.464 589.018 200.191 593.816C197.939 602.139 196.812 606.3 196.812 606.3C195.344 633.423 201.757 635.528 216.053 612.616C235.588 581.478 199.75 538.591 174.928 521.113C167.615 516.009 161.963 508.863 158.673 500.56C155.383 492.257 154.6 483.163 156.422 474.406L159.506 459.278C161.171 451.151 157.891 447.675 149.666 448.85L113.828 454.284C111.947 454.555 110.029 454.341 108.254 453.662C106.479 452.983 104.907 451.863 103.686 450.407C102.465 448.951 101.636 447.207 101.278 445.341C100.919 443.475 101.043 441.549 101.637 439.744L124.256 369.537C125.921 364.446 125.333 359.697 122.494 355.291C109.471 334.826 100.805 310.934 96.4969 283.616C94.5385 271.474 98.5531 262.612 108.541 257.031C133.656 243.225 158.478 254.828 184.916 234.559C186.66 233.237 188.776 232.498 190.964 232.445C193.151 232.392 195.3 233.029 197.106 234.266C240.728 264.669 274.216 229.419 311.962 240.728C346.919 251.303 347.359 284.644 324.447 305.794C276.859 350.003 282 399.647 353.969 401.116C360.725 401.214 366.6 403.221 371.594 407.137C377.371 411.837 379.868 418.104 379.084 425.937C378.693 430.05 380.308 433.183 383.931 435.337C385.106 436.023 386.379 436.268 387.75 436.072C389.904 435.778 391.618 434.701 392.891 432.841C410.222 406.844 389.366 388.925 364.25 383.784C352.5 381.336 340.946 378.986 329.587 376.734C325.678 375.957 322.052 374.133 319.097 371.458C316.142 368.782 313.968 365.355 312.807 361.541C311.646 357.727 311.542 353.67 312.506 349.801C313.469 345.933 315.464 342.399 318.278 339.575C338.106 319.6 362.047 294.925 357.347 264.375C342.219 165.087 195.931 273.775 192.406 180.803C191.819 163.961 197.89 148.491 210.619 134.391C212.283 132.53 212.43 130.572 211.059 128.516L208.709 124.697C205.674 119.899 202.002 119.36 197.694 123.081C175.76 142.273 168.319 173.655 175.369 217.228C175.858 219.676 174.83 221.243 172.284 221.928C95.224 240.924 68.4437 247.533 91.9437 241.756C89.3 242.442 87.9781 241.414 87.9781 238.672C88.2719 194.511 106.827 159.898 143.644 134.831C147.691 132.036 150.929 128.293 153.044 123.962C194.903 38.0406 329.587 15.7156 409.487 50.0844C416.537 53.1198 423.93 55.0781 431.666 55.9594C436.592 56.4417 441.373 58.1023 445.619 60.8062C485.569 87.1458 508.139 125.97 513.328 177.278C513.543 179.698 513.079 182.125 511.988 184.281C510.897 186.437 509.223 188.235 507.159 189.469L479.547 206.066C476.022 208.122 474.651 211.157 475.434 215.172C475.826 217.032 477.001 218.403 478.959 219.284C481.211 220.166 483.513 220.215 485.863 219.431C502.166 213.409 515.384 206.506 533.597 210.031C566.007 216.298 579.275 236.958 573.4 272.012ZM408.606 82.6906C408.312 77.501 409.145 72.5073 411.103 67.7094C411.79 66.0602 411.841 64.2108 411.246 62.5076C410.651 60.8043 409.452 59.364 407.872 58.4562L404.347 56.5469C402.878 55.6656 401.654 55.9594 400.675 57.4281C372.328 98.9937 415.803 117.206 447.969 121.759C455.312 122.836 460.257 126.9 462.803 133.95L469.706 153.044C473.525 163.619 477.295 163.57 481.016 152.897C484.932 141.93 482.533 131.404 473.819 121.319C460.453 105.897 436.512 102.078 418.153 95.3219C412.278 93.1677 409.096 88.9573 408.606 82.6906ZM332.819 99.5812L347.506 74.025C349.758 70.0104 348.583 67.8073 343.981 67.4156L336.197 66.6812C335.248 66.5899 334.288 66.7286 333.394 67.086C332.501 67.4434 331.7 68.0093 331.056 68.7375C303.591 100.609 309.319 137.916 351.325 145.7C389.659 152.75 425.35 153.925 430.197 202.834C430.33 204.207 430.77 205.529 431.482 206.699C432.195 207.87 433.161 208.858 434.309 209.591C437.051 211.255 439.45 211.108 441.506 209.15C443.758 207.094 444.884 204.499 444.884 201.366C444.15 138.062 390.834 134.391 344.275 124.844C341.629 124.323 339.147 123.177 337.033 121.5C334.918 119.823 333.233 117.662 332.115 115.196C330.996 112.73 330.477 110.029 330.599 107.314C330.722 104.599 331.482 101.949 332.819 99.5812ZM150.987 340.162C176.446 327.237 201.855 324.398 227.216 331.644C232.209 333.112 235.49 331.35 237.056 326.356L238.378 322.097C238.743 320.98 238.688 319.773 238.226 318.713C237.764 317.653 236.927 316.816 235.881 316.369C205.527 303.737 175.271 306.136 145.112 323.566C143.398 324.544 142.125 326.151 141.552 328.06C140.98 329.968 141.15 332.037 142.028 333.847L144.084 337.959C144.711 339.164 145.788 340.071 147.082 340.484C148.375 340.897 149.779 340.781 150.987 340.162ZM205.772 343.394L152.456 356.612C151.843 356.785 151.319 357.185 150.992 357.731C150.664 358.277 150.558 358.928 150.694 359.55L151.134 361.312C151.663 363.468 152.77 365.46 154.392 367.173C156.015 368.886 158.121 370.288 160.59 371.297C163.059 372.307 165.842 372.904 168.781 373.056C171.721 373.208 174.758 372.91 177.719 372.181L190.791 368.95C196.753 367.483 202.048 364.356 205.516 360.254C208.985 356.152 210.344 351.41 209.297 347.066L208.856 345.303C208.788 344.971 208.652 344.656 208.457 344.377C208.263 344.099 208.014 343.863 207.725 343.684C207.436 343.506 207.114 343.388 206.778 343.338C206.443 343.288 206.1 343.307 205.772 343.394ZM443.856 709.259L465.594 682.528C482.142 695.845 497.27 698.88 510.978 691.634C530.561 701.72 549.068 700.398 566.497 687.669C587.157 672.394 582.898 653.496 553.719 630.975C535.017 613.448 526.645 597.781 528.603 583.975C537.122 524.784 559.006 457.369 486.156 427.259C483.512 426.182 481.603 426.966 480.428 429.609L478.372 434.162C477.705 435.798 477.65 437.618 478.217 439.29C478.783 440.963 479.933 442.375 481.456 443.269C520.917 465.985 531.541 499.13 513.328 542.703L484.687 539.766C485.569 491.982 465.643 458.495 424.909 439.303C420.405 437.247 417.223 438.52 415.362 443.122L413.6 447.675C412.621 450.123 413.306 451.885 415.656 452.962C455.312 472.056 470.343 502.264 460.747 543.584L428.434 542.997C431.225 491.003 402.291 472.056 355.584 465.741C350.786 465.153 346.968 462.852 344.128 458.837C339.232 451.69 338.351 443.367 341.484 433.869C341.95 432.466 341.84 430.937 341.179 429.615C340.518 428.294 339.36 427.288 337.959 426.819L333.259 425.203C332.369 424.885 331.421 424.761 330.482 424.841C329.542 424.92 328.634 425.201 327.822 425.663C327.01 426.125 326.313 426.757 325.781 427.515C325.248 428.273 324.893 429.139 324.741 430.05C315.341 478.078 347.653 480.428 381.581 491.297L355.584 529.044L306.528 508.775C301.143 506.523 298.597 502.508 298.891 496.731C299.919 475.434 295.953 435.337 275.831 425.791C269.76 422.853 263.885 422.804 258.206 425.644C252.723 428.385 252.674 431.225 258.059 434.162C277.153 444.64 285.28 461.334 282.441 484.247C280.884 496.725 284.268 509.317 291.87 519.334C299.471 529.35 310.688 535.998 323.125 537.856C377.909 545.934 357.494 604.684 358.669 638.906C358.98 647.933 361.986 656.659 367.3 663.962C372.614 671.265 379.992 676.811 388.484 679.884C420.405 691.536 428.777 713.323 413.6 745.244C413.159 746.167 412.909 747.169 412.863 748.191C412.817 749.213 412.977 750.234 413.333 751.193C413.689 752.152 414.234 753.029 414.936 753.773C415.638 754.518 416.482 755.113 417.419 755.525L421.384 757.288C422.853 757.973 423.979 757.63 424.762 756.259C433.575 741.866 439.94 726.199 443.856 709.259Z" fill="#F0F3F7"/>
<path d="M418.153 95.3219C436.512 102.078 460.453 105.897 473.819 121.319C482.533 131.404 484.932 141.93 481.016 152.897C477.295 163.57 473.525 163.619 469.706 153.044L462.803 133.95C460.257 126.9 455.312 122.836 447.969 121.759C415.803 117.206 372.328 98.9938 400.675 57.4281C401.654 55.9594 402.878 55.6656 404.347 56.5469L407.872 58.4563C409.452 59.364 410.651 60.8043 411.246 62.5076C411.841 64.2108 411.79 66.0602 411.103 67.7094C409.145 72.5073 408.312 77.5011 408.606 82.6906C409.096 88.9573 412.278 93.1677 418.153 95.3219Z" fill="#8C92A8"/>
<path d="M332.819 99.5812C331.482 101.949 330.722 104.599 330.599 107.314C330.477 110.029 330.996 112.73 332.115 115.196C333.233 117.662 334.918 119.823 337.032 121.5C339.147 123.177 341.629 124.323 344.275 124.844C390.834 134.391 444.15 138.062 444.884 201.366C444.884 204.499 443.758 207.094 441.506 209.15C439.45 211.108 437.051 211.255 434.309 209.591C433.161 208.858 432.195 207.87 431.482 206.699C430.77 205.529 430.33 204.207 430.197 202.834C425.35 153.925 389.659 152.75 351.325 145.7C309.319 137.916 303.591 100.609 331.056 68.7375C331.7 68.0093 332.501 67.4434 333.394 67.086C334.288 66.7286 335.248 66.5899 336.197 66.6812L343.981 67.4156C348.583 67.8073 349.758 70.0104 347.506 74.025L332.819 99.5812Z" fill="#8C92A8"/>
<path d="M770.8 121.759C795.328 86.3625 850.406 85.6281 864.359 130.278C876.109 168.319 834.544 194.756 800.763 183.888C787.544 179.628 779.319 170.816 770.212 160.681C765.317 155.296 760.666 155.541 756.259 161.416C722.772 206.359 651.978 188.881 663.434 126.606C664.511 121.123 667.155 116.521 671.366 112.8C701.622 86.8521 730.36 90.0344 757.581 122.347C758.418 123.333 759.468 124.116 760.65 124.635C761.833 125.153 763.114 125.394 764.395 125.337C765.675 125.28 766.92 124.927 768.032 124.307C769.143 123.686 770.09 122.814 770.8 121.759ZM741.719 152.016C748.279 145.455 748.475 138.65 742.306 131.6C724.779 111.723 706.665 108.785 687.963 122.788C685.293 124.785 683.091 127.341 681.511 130.277C679.931 133.214 679.011 136.459 678.816 139.788C678.62 143.117 679.153 146.448 680.378 149.549C681.602 152.65 683.489 155.447 685.906 157.744C703.14 173.9 721.744 171.991 741.719 152.016ZM830.431 117.206C827.451 114.852 823.85 113.418 820.067 113.079C816.285 112.74 812.486 113.511 809.134 115.297L792.978 123.816C789.894 125.462 787.308 127.907 785.491 130.894C783.673 133.88 782.69 137.3 782.645 140.796C782.6 144.292 783.495 147.737 785.235 150.769C786.975 153.802 789.497 156.312 792.537 158.038L808.106 166.85C811.388 168.739 815.148 169.634 818.929 169.426C822.71 169.217 826.349 167.914 829.403 165.675L841.006 157.009C843.418 155.231 845.388 152.921 846.764 150.259C848.14 147.598 848.885 144.655 848.942 141.659C848.999 138.663 848.365 135.694 847.091 132.982C845.817 130.27 843.936 127.888 841.594 126.019L830.431 117.206Z" fill="#444C73" fill-opacity="0.996"/>
<path d="M436.512 347.506C458.837 346.135 477.148 349.66 491.444 358.081C504.271 370.81 508.334 386.281 503.634 404.494C503.431 405.27 503.074 405.998 502.585 406.635C502.096 407.272 501.484 407.804 500.786 408.201C500.088 408.598 499.318 408.851 498.521 408.946C497.723 409.041 496.915 408.975 496.144 408.753L491.003 407.284C487.478 406.305 486.156 404.004 487.037 400.381C489.485 390.198 487.919 381.385 482.337 373.944C480.595 371.649 478.373 369.773 475.832 368.452C473.291 367.13 470.495 366.397 467.65 366.306C431.225 365.131 388.337 366.6 386.722 316.809C385.694 288.609 399.353 252.625 385.547 227.363C352.059 165.528 206.653 223.103 250.422 122.788C251.772 119.796 253.784 117.18 256.297 115.15C262.27 110.254 266.578 110.793 269.222 116.766C270.166 118.733 270.581 120.917 270.426 123.105C270.272 125.293 269.553 127.41 268.341 129.25C261.389 140.315 260.458 150.89 265.55 160.975C266.576 163.021 268.139 164.755 270.077 165.995C272.015 167.235 274.255 167.936 276.566 168.025C320.775 169.2 375.119 170.669 399.353 214.584C417.566 247.631 401.409 284.35 403.612 319.306C404.69 335.756 415.656 345.156 436.512 347.506Z" fill="#8C92A8"/>
<path d="M741.719 152.016C721.744 171.991 703.14 173.9 685.906 157.744C683.489 155.447 681.602 152.65 680.378 149.549C679.153 146.448 678.62 143.117 678.816 139.788C679.011 136.459 679.931 133.214 681.511 130.277C683.091 127.341 685.293 124.785 687.962 122.787C706.665 108.785 724.779 111.723 742.306 131.6C748.475 138.65 748.279 145.455 741.719 152.016Z" fill="#F0F3F7"/>
<path d="M830.431 117.206L841.594 126.019C843.936 127.888 845.817 130.27 847.091 132.982C848.365 135.694 848.999 138.663 848.942 141.659C848.885 144.655 848.14 147.598 846.764 150.259C845.388 152.921 843.418 155.231 841.006 157.009L829.403 165.675C826.349 167.914 822.71 169.217 818.929 169.426C815.148 169.634 811.388 168.739 808.106 166.85L792.537 158.038C789.497 156.312 786.975 153.802 785.235 150.769C783.495 147.737 782.6 144.292 782.645 140.796C782.69 137.3 783.673 133.88 785.49 130.894C787.308 127.907 789.894 125.462 792.978 123.816L809.134 115.297C812.486 113.511 816.285 112.74 820.067 113.079C823.85 113.418 827.451 114.852 830.431 117.206Z" fill="#F0F3F7"/>
<path d="M726.444 252.625C724.485 252.233 722.282 251.107 719.834 249.247C733.739 244.253 747.3 244.106 760.519 248.806C766.1 250.765 766.051 252.478 760.372 253.947C749.797 256.786 738.487 256.346 726.444 252.625Z" fill="#D5D9E2"/>
<path d="M573.4 272.012C571.784 294.484 553.572 309.612 561.503 336.344C555.726 338.596 549.998 341.925 544.319 346.331C540.206 349.562 536.681 351.031 533.744 350.737C528.946 350.15 525.959 346.772 524.784 340.603C547.991 326.111 556.95 313.089 551.663 301.534C551.467 277.936 540.157 267.802 517.734 271.131C503.732 273.187 489.681 275.391 475.581 277.741C470.685 278.524 467.356 276.664 465.594 272.159C464.321 268.928 465.643 266.382 469.559 264.522C503.928 247.974 538.542 250.471 573.4 272.012Z" fill="#8C92A8"/>
<path d="M607.181 360.284C597.879 367.824 590.927 366.061 586.325 354.997C575.554 328.853 578.638 305.451 595.578 284.791C597.135 282.893 599.114 281.387 601.359 280.39C603.604 279.394 606.054 278.935 608.517 279.049C610.98 279.163 613.388 279.846 615.552 281.047C617.716 282.247 619.576 283.931 620.987 285.966C639.69 313.089 635.087 337.861 607.181 360.284Z" fill="#F0F3F7"/>
<path d="M524.784 340.603C509.02 343.247 497.906 349.073 491.444 358.081C477.148 349.66 458.837 346.135 436.512 347.506C443.856 341.925 447.577 335.365 447.675 327.825C447.715 325.58 448.249 323.372 449.24 321.358C450.23 319.343 451.652 317.572 453.405 316.17C455.158 314.767 457.199 313.768 459.382 313.244C461.564 312.72 463.836 312.684 466.034 313.137C504.32 321.167 532.862 317.299 551.662 301.534C556.95 313.089 547.991 326.111 524.784 340.603Z" fill="#D5D9E2"/>
<path d="M150.987 340.163C149.779 340.781 148.375 340.897 147.082 340.484C145.788 340.071 144.711 339.164 144.084 337.959L142.028 333.847C141.15 332.037 140.98 329.968 141.552 328.06C142.125 326.151 143.398 324.544 145.113 323.566C175.271 306.136 205.527 303.738 235.881 316.369C236.927 316.816 237.764 317.653 238.226 318.713C238.688 319.773 238.743 320.98 238.378 322.097L237.056 326.356C235.49 331.35 232.209 333.113 227.216 331.644C201.855 324.398 176.446 327.238 150.987 340.163Z" fill="#444C73" fill-opacity="0.996"/>
<path d="M726.442 366.922C726.504 375.803 722.556 384.348 715.466 390.678C708.376 397.007 698.725 400.603 688.637 400.674C678.548 400.744 668.848 397.283 661.671 391.053C654.493 384.823 650.426 376.334 650.364 367.453C650.302 358.572 654.25 350.027 661.34 343.697C668.43 337.368 678.081 333.772 688.17 333.701C698.258 333.631 707.958 337.092 715.135 343.322C722.313 349.552 726.38 358.041 726.442 366.922ZM705.734 366.453C705.734 361.857 703.908 357.448 700.658 354.198C697.408 350.948 693 349.122 688.403 349.122C683.807 349.122 679.398 350.948 676.148 354.198C672.898 357.448 671.072 361.857 671.072 366.453C671.072 371.05 672.898 375.458 676.148 378.708C679.398 381.958 683.807 383.784 688.403 383.784C693 383.784 697.408 381.958 700.658 378.708C703.908 375.458 705.734 371.05 705.734 366.453Z" fill="#444C73" fill-opacity="0.996"/>
<path d="M205.772 343.394C206.1 343.307 206.443 343.288 206.778 343.338C207.114 343.388 207.436 343.506 207.725 343.684C208.014 343.863 208.263 344.099 208.458 344.377C208.652 344.656 208.788 344.971 208.856 345.303L209.297 347.066C210.344 351.41 208.985 356.152 205.516 360.254C202.048 364.356 196.753 367.483 190.791 368.95L177.719 372.181C174.758 372.91 171.721 373.208 168.781 373.056C165.842 372.904 163.059 372.307 160.59 371.297C158.121 370.288 156.015 368.886 154.392 367.173C152.77 365.46 151.663 363.468 151.134 361.313L150.694 359.55C150.558 358.928 150.664 358.277 150.992 357.731C151.319 357.185 151.843 356.785 152.456 356.613L205.772 343.394Z" fill="#444C73" fill-opacity="0.996"/>
<path d="M688.403 383.784C697.975 383.784 705.734 376.025 705.734 366.453C705.734 356.881 697.975 349.122 688.403 349.122C678.831 349.122 671.072 356.881 671.072 366.453C671.072 376.025 678.831 383.784 688.403 383.784Z" fill="#F0F3F7"/>
<path d="M899.903 426.378C889.328 583.045 889.034 739.026 899.022 894.322L686.934 894.175C680.374 894.175 679.444 891.874 684.144 887.272C722.135 849.77 750.825 804.141 770.212 750.384C770.851 748.72 770.777 746.859 770.007 745.208C769.237 743.558 767.832 742.251 766.1 741.572L761.841 739.956C759.001 738.879 756.994 739.76 755.819 742.6C737.41 788.425 710.777 830.872 675.919 869.941C662.406 885.02 645.516 892.853 625.247 893.441L556.95 895.644C542.262 896.133 540.647 891.776 552.103 882.572C698.978 764.876 766.785 608.258 755.525 412.719C755.393 410.955 755.877 409.2 756.895 407.754C757.913 406.307 759.401 405.259 761.106 404.787C801.839 394.017 843.356 393.086 885.656 401.997C890.748 403.074 894.762 405.62 897.7 409.634C901.127 414.53 901.861 420.111 899.903 426.378Z" fill="#F0F3F7"/>
<path d="M355.584 529.044C387.75 563.413 380.847 595.431 377.322 634.059C376.245 646.397 381.385 655.111 392.744 660.203C416.537 670.876 433.575 687.228 443.856 709.259C439.94 726.199 433.575 741.866 424.762 756.259C423.979 757.63 422.853 757.973 421.384 757.288L417.419 755.525C416.482 755.113 415.638 754.518 414.936 753.773C414.234 753.029 413.689 752.152 413.333 751.193C412.977 750.234 412.817 749.213 412.863 748.191C412.909 747.169 413.159 746.167 413.6 745.244C428.777 713.323 420.405 691.537 388.484 679.884C379.992 676.811 372.614 671.265 367.3 663.962C361.986 656.659 358.98 647.933 358.669 638.906C357.494 604.684 377.909 545.934 323.125 537.856C310.688 535.998 299.471 529.35 291.87 519.334C284.268 509.317 280.884 496.725 282.441 484.247C285.28 461.334 277.153 444.64 258.059 434.163C252.674 431.225 252.723 428.385 258.206 425.644C263.885 422.804 269.76 422.853 275.831 425.791C295.953 435.338 299.919 475.434 298.891 496.731C298.597 502.508 301.143 506.523 306.528 508.775L355.584 529.044Z" fill="#8C92A8"/>
<path d="M428.434 542.997C426.672 550.732 421.335 550.047 412.425 540.941C411.542 540.015 410.853 538.915 410.399 537.704C409.945 536.494 409.735 535.197 409.781 533.891C410.565 512.349 401.165 498.151 381.581 491.297C347.653 480.428 315.341 478.078 324.741 430.05C324.893 429.139 325.248 428.273 325.781 427.515C326.313 426.757 327.01 426.125 327.822 425.663C328.634 425.201 329.542 424.92 330.482 424.841C331.421 424.761 332.369 424.885 333.259 425.203L337.959 426.819C339.36 427.288 340.518 428.294 341.179 429.615C341.84 430.937 341.95 432.466 341.484 433.869C338.351 443.367 339.232 451.69 344.128 458.837C346.968 462.852 350.786 465.153 355.584 465.741C402.291 472.056 431.225 491.003 428.434 542.997Z" fill="#8C92A8"/>
<path d="M553.719 630.975C538.15 637.535 526.498 631.318 518.762 612.322C510.244 591.564 508.432 568.357 513.328 542.703C531.541 499.13 520.917 465.985 481.456 443.269C479.933 442.375 478.783 440.963 478.217 439.291C477.65 437.618 477.705 435.798 478.372 434.162L480.428 429.609C481.603 426.966 483.512 426.182 486.156 427.259C559.006 457.369 537.122 524.784 528.603 583.975C526.645 597.781 535.017 613.448 553.719 630.975Z" fill="#8C92A8"/>
<path d="M899.022 894.322C889.034 739.026 889.328 583.045 899.903 426.378C920.662 583.73 920.368 739.711 899.022 894.322Z" fill="#8C92A8"/>
<path d="M484.687 539.766C477.735 561.797 471.126 584.416 464.859 607.622C455.361 642.872 470.734 670.876 510.978 691.634C497.27 698.88 482.142 695.845 465.594 682.528C423.734 641.991 452.816 589.85 460.747 543.584C470.343 502.264 455.312 472.056 415.656 452.962C413.306 451.885 412.621 450.123 413.6 447.675L415.362 443.122C417.223 438.52 420.405 437.247 424.909 439.303C465.643 458.495 485.569 491.982 484.687 539.766Z" fill="#8C92A8"/>
<path d="M546.816 861.128C560.328 838.803 584.171 806.882 618.344 765.366C686.787 682.039 716.456 580.254 707.35 460.012C712.833 456.683 720.079 455.215 729.087 455.606C734.179 455.802 736.725 458.397 736.725 463.391C738.879 627.009 675.576 759.589 546.816 861.128Z" fill="#D5D9E2"/>
<path d="M428.434 542.997L460.747 543.584C452.816 589.85 423.734 641.991 465.594 682.528L443.856 709.259C433.575 687.228 416.537 670.876 392.744 660.203C381.385 655.111 376.245 646.397 377.322 634.059C380.847 595.431 387.75 563.412 355.584 529.044L381.581 491.297C401.165 498.151 410.565 512.349 409.781 533.891C409.735 535.197 409.945 536.494 410.399 537.704C410.853 538.915 411.542 540.015 412.425 540.941C421.335 550.047 426.672 550.732 428.434 542.997Z" fill="#D5D9E2"/>
<path d="M513.328 542.703C508.432 568.357 510.244 591.564 518.762 612.322C526.498 631.318 538.15 637.535 553.719 630.975C582.898 653.496 587.157 672.394 566.497 687.669C549.068 700.398 530.561 701.72 510.978 691.634C470.734 670.876 455.361 642.872 464.859 607.622C471.126 584.416 477.735 561.797 484.687 539.766L513.328 542.703Z" fill="#D5D9E2"/>
</svg>
